M48
;GenerationSoftware,Autodesk,EAGLE,9.6.2*%
;CreationDate,2022-11-26T23:19:19Z*%
FMAT,2
ICI,OFF
METRIC,TZ,000.000
T12C0.350
T11C0.400
T10C0.600
T9C1.000
T8C1.016
T7C1.100
T6C1.500
T5C1.700
T4C2.200
T3C2.800
T2C3.000
T1C3.988
%
G90
M71
T1
X13970Y8890
X13970Y41910
X30480Y58420
X46990Y58420
X13970Y25400
X30480Y8890
X30480Y41910
X46990Y41910
X46990Y8890
X63500Y25400
X30480Y25400
X63500Y41910
X63500Y58420
X13970Y58420
X46990Y25400
X63500Y8890
T2
X26670Y44450
X33020Y46990
X10160Y11430
X16510Y13970
X26670Y27940
X33020Y30480
X26670Y11430
X33020Y13970
X43180Y60960
X49530Y63500
X33020Y63500
X49530Y46990
X49530Y30480
X43180Y11430
X49530Y13970
X59690Y60960
X59690Y44450
X66040Y46990
X43180Y44450
X59690Y27940
X66040Y30480
X59690Y11430
X66040Y13970
X10160Y44450
X16510Y46990
X10160Y27940
X16510Y30480
X26670Y60960
X66040Y63500
X10160Y60960
X16510Y63500
X43180Y27940
T3
X118110Y2540
X118110Y66040
X2540Y2540
X2540Y64770
T4
X75280Y36820
X112680Y36820
X75280Y3820
X112680Y3820
T5
X8970Y8890
X35480Y25400
X25480Y25400
X51990Y25400
X41990Y25400
X58500Y58420
X25480Y8890
X58500Y41910
X68500Y41910
X41990Y8890
X58500Y25400
X68500Y25400
X51990Y8890
X18970Y58420
X8970Y58420
X18970Y41910
X41990Y41910
X51990Y41910
X8970Y41910
X25480Y41910
X35480Y8890
X35480Y41910
X18970Y25400
X41990Y58420
X51990Y58420
X8970Y25400
X25480Y58420
X35480Y58420
X18970Y8890
X58500Y8890
X68500Y8890
X68500Y58420
T6
X26670Y60960
X49500Y63500
X43180Y60960
X32990Y46990
X26670Y44450
X49500Y46990
X43180Y44450
X66010Y63500
X16480Y63500
X10160Y60960
X16480Y46990
X10160Y44450
X16480Y30480
X10160Y27940
X16480Y13970
X10160Y11430
X32990Y30480
X26670Y27940
X49500Y30480
X43180Y27940
X32990Y13970
X26670Y11430
X49500Y13970
X43180Y11430
X59690Y60960
X66010Y30480
X59690Y27940
X66010Y46990
X59690Y44450
X66010Y13970
X59690Y11430
X32990Y63500
T7
X86153Y48768
X76153Y48768
T8
X88189Y65761
X88189Y61239
X94691Y61239
X94691Y65761
T9
X96520Y37320
X34290Y36830
X26670Y36830
X93980Y37320
X91440Y37320
X50800Y53340
X43180Y53340
X88900Y37320
X86360Y37320
X34290Y53340
X67310Y3810
X26670Y53340
X59690Y3810
X67310Y36830
X59690Y36830
X67310Y20320
X59690Y20320
X67310Y53340
X59690Y53340
X50800Y3810
X43180Y3810
X34290Y3810
X26670Y3810
X50800Y20320
X43180Y20320
X34290Y20320
X26670Y20320
X17780Y3810
X10160Y3810
X17780Y20320
X50800Y36830
X17780Y36830
X10160Y36830
X101600Y37320
X17780Y53340
X10160Y53340
X10160Y20320
X43180Y36830
X99060Y37320
T10
X81795Y66040
X73145Y66040
X81795Y62660
X73145Y62660
T11
X79595Y63030
X80445Y63030
X74495Y61680
X80445Y61680
X79595Y61680
X78745Y61680
X77895Y61680
X77045Y61680
X76195Y61680
X75345Y61680
X74495Y63030
X75345Y63030
X76195Y63030
X77045Y63030
X77895Y63030
X78745Y63030
T12
X80924Y15037
X81686Y17780
X81686Y27991
X109423Y53289
X99365Y62281
X89916Y26772
X106985Y38202
X108204Y45517
X104851Y53289
X114757Y65634
X101346Y46584
X103022Y55270
X108814Y44602
X110795Y48717
X113843Y55728
X112166Y57709
X101346Y52680
X88849Y58318
X106985Y53899
X96164Y51003
X96164Y55423
X98755Y58014
X107899Y57099
X112776Y66243
X103022Y66243
X100889Y62738
X106832Y63500
X101346Y48108
X58522Y55575
X90068Y52527
X89459Y42316
X91592Y35916
X89459Y1930
X92202Y57099
X83972Y53442
X107137Y23724
X81382Y26314
X105766Y36525
X83972Y49327
X104242Y17780
X25756Y5740
X108052Y61062
X111557Y63500
X81686Y28905
X51359Y33477
X106832Y60909
X107137Y65176
X71476Y29667
X25603Y38964
X106832Y39268
X109423Y65176
X68580Y16561
X73914Y12141
X88392Y17018
X88392Y14732
X25451Y55575
X9906Y5131
X76352Y12751
X68885Y34087
X79096Y22047
X66904Y35154
X72695Y29362
X48920Y51308
X68275Y38811
X104089Y39268
X105004Y40183
X107442Y62586
X105918Y39268
X110338Y64872
M30