G04 EAGLE Gerber RS-274X export*
G75*
%MOMM*%
%FSLAX34Y34*%
%LPD*%
%INSolderpaste Bottom*%
%IPPOS*%
%AMOC8*
5,1,8,0,0,1.08239X$1,22.5*%
G01*
%ADD10R,1.100000X1.000000*%
%ADD11R,2.550000X2.500000*%
%ADD12C,0.040000*%


D10*
X1088000Y508000D03*
X1071000Y508000D03*
X821300Y533400D03*
X804300Y533400D03*
X1088000Y457200D03*
X1071000Y457200D03*
X821300Y431800D03*
X804300Y431800D03*
D11*
X-10100Y609600D03*
X124400Y635000D03*
X370900Y228600D03*
X505400Y254000D03*
X370900Y38100D03*
X505400Y63500D03*
X561400Y609600D03*
X695900Y635000D03*
X561400Y419100D03*
X695900Y444500D03*
X561400Y228600D03*
X695900Y254000D03*
X561400Y38100D03*
X695900Y63500D03*
X-10100Y419100D03*
X124400Y444500D03*
X-10100Y228600D03*
X124400Y254000D03*
X180400Y609600D03*
X314900Y635000D03*
X180400Y419100D03*
X314900Y444500D03*
X-10100Y38100D03*
X124400Y63500D03*
X180400Y228600D03*
X314900Y254000D03*
X180400Y38100D03*
X314900Y63500D03*
X370900Y609600D03*
X505400Y635000D03*
X370900Y419100D03*
X505400Y444500D03*
D12*
X818350Y205000D02*
X823250Y205000D01*
X823250Y201400D01*
X818350Y201400D01*
X818350Y205000D01*
X818350Y201780D02*
X823250Y201780D01*
X823250Y202160D02*
X818350Y202160D01*
X818350Y202540D02*
X823250Y202540D01*
X823250Y202920D02*
X818350Y202920D01*
X818350Y203300D02*
X823250Y203300D01*
X823250Y203680D02*
X818350Y203680D01*
X818350Y204060D02*
X823250Y204060D01*
X823250Y204440D02*
X818350Y204440D01*
X818350Y204820D02*
X823250Y204820D01*
X807250Y205000D02*
X802350Y205000D01*
X807250Y205000D02*
X807250Y201400D01*
X802350Y201400D01*
X802350Y205000D01*
X802350Y201780D02*
X807250Y201780D01*
X807250Y202160D02*
X802350Y202160D01*
X802350Y202540D02*
X807250Y202540D01*
X807250Y202920D02*
X802350Y202920D01*
X802350Y203300D02*
X807250Y203300D01*
X807250Y203680D02*
X802350Y203680D01*
X802350Y204060D02*
X807250Y204060D01*
X807250Y204440D02*
X802350Y204440D01*
X802350Y204820D02*
X807250Y204820D01*
X818350Y154200D02*
X823250Y154200D01*
X823250Y150600D01*
X818350Y150600D01*
X818350Y154200D01*
X818350Y150980D02*
X823250Y150980D01*
X823250Y151360D02*
X818350Y151360D01*
X818350Y151740D02*
X823250Y151740D01*
X823250Y152120D02*
X818350Y152120D01*
X818350Y152500D02*
X823250Y152500D01*
X823250Y152880D02*
X818350Y152880D01*
X818350Y153260D02*
X823250Y153260D01*
X823250Y153640D02*
X818350Y153640D01*
X818350Y154020D02*
X823250Y154020D01*
X807250Y154200D02*
X802350Y154200D01*
X807250Y154200D02*
X807250Y150600D01*
X802350Y150600D01*
X802350Y154200D01*
X802350Y150980D02*
X807250Y150980D01*
X807250Y151360D02*
X802350Y151360D01*
X802350Y151740D02*
X807250Y151740D01*
X807250Y152120D02*
X802350Y152120D01*
X802350Y152500D02*
X807250Y152500D01*
X807250Y152880D02*
X802350Y152880D01*
X802350Y153260D02*
X807250Y153260D01*
X807250Y153640D02*
X802350Y153640D01*
X802350Y154020D02*
X807250Y154020D01*
X818350Y103400D02*
X823250Y103400D01*
X823250Y99800D01*
X818350Y99800D01*
X818350Y103400D01*
X818350Y100180D02*
X823250Y100180D01*
X823250Y100560D02*
X818350Y100560D01*
X818350Y100940D02*
X823250Y100940D01*
X823250Y101320D02*
X818350Y101320D01*
X818350Y101700D02*
X823250Y101700D01*
X823250Y102080D02*
X818350Y102080D01*
X818350Y102460D02*
X823250Y102460D01*
X823250Y102840D02*
X818350Y102840D01*
X818350Y103220D02*
X823250Y103220D01*
X807250Y103400D02*
X802350Y103400D01*
X807250Y103400D02*
X807250Y99800D01*
X802350Y99800D01*
X802350Y103400D01*
X802350Y100180D02*
X807250Y100180D01*
X807250Y100560D02*
X802350Y100560D01*
X802350Y100940D02*
X807250Y100940D01*
X807250Y101320D02*
X802350Y101320D01*
X802350Y101700D02*
X807250Y101700D01*
X807250Y102080D02*
X802350Y102080D01*
X802350Y102460D02*
X807250Y102460D01*
X807250Y102840D02*
X802350Y102840D01*
X802350Y103220D02*
X807250Y103220D01*
X818350Y52600D02*
X823250Y52600D01*
X823250Y49000D01*
X818350Y49000D01*
X818350Y52600D01*
X818350Y49380D02*
X823250Y49380D01*
X823250Y49760D02*
X818350Y49760D01*
X818350Y50140D02*
X823250Y50140D01*
X823250Y50520D02*
X818350Y50520D01*
X818350Y50900D02*
X823250Y50900D01*
X823250Y51280D02*
X818350Y51280D01*
X818350Y51660D02*
X823250Y51660D01*
X823250Y52040D02*
X818350Y52040D01*
X818350Y52420D02*
X823250Y52420D01*
X807250Y52600D02*
X802350Y52600D01*
X807250Y52600D02*
X807250Y49000D01*
X802350Y49000D01*
X802350Y52600D01*
X802350Y49380D02*
X807250Y49380D01*
X807250Y49760D02*
X802350Y49760D01*
X802350Y50140D02*
X807250Y50140D01*
X807250Y50520D02*
X802350Y50520D01*
X802350Y50900D02*
X807250Y50900D01*
X807250Y51280D02*
X802350Y51280D01*
X802350Y51660D02*
X807250Y51660D01*
X807250Y52040D02*
X802350Y52040D01*
X802350Y52420D02*
X807250Y52420D01*
X894550Y205000D02*
X899450Y205000D01*
X899450Y201400D01*
X894550Y201400D01*
X894550Y205000D01*
X894550Y201780D02*
X899450Y201780D01*
X899450Y202160D02*
X894550Y202160D01*
X894550Y202540D02*
X899450Y202540D01*
X899450Y202920D02*
X894550Y202920D01*
X894550Y203300D02*
X899450Y203300D01*
X899450Y203680D02*
X894550Y203680D01*
X894550Y204060D02*
X899450Y204060D01*
X899450Y204440D02*
X894550Y204440D01*
X894550Y204820D02*
X899450Y204820D01*
X883450Y205000D02*
X878550Y205000D01*
X883450Y205000D02*
X883450Y201400D01*
X878550Y201400D01*
X878550Y205000D01*
X878550Y201780D02*
X883450Y201780D01*
X883450Y202160D02*
X878550Y202160D01*
X878550Y202540D02*
X883450Y202540D01*
X883450Y202920D02*
X878550Y202920D01*
X878550Y203300D02*
X883450Y203300D01*
X883450Y203680D02*
X878550Y203680D01*
X878550Y204060D02*
X883450Y204060D01*
X883450Y204440D02*
X878550Y204440D01*
X878550Y204820D02*
X883450Y204820D01*
X894550Y154200D02*
X899450Y154200D01*
X899450Y150600D01*
X894550Y150600D01*
X894550Y154200D01*
X894550Y150980D02*
X899450Y150980D01*
X899450Y151360D02*
X894550Y151360D01*
X894550Y151740D02*
X899450Y151740D01*
X899450Y152120D02*
X894550Y152120D01*
X894550Y152500D02*
X899450Y152500D01*
X899450Y152880D02*
X894550Y152880D01*
X894550Y153260D02*
X899450Y153260D01*
X899450Y153640D02*
X894550Y153640D01*
X894550Y154020D02*
X899450Y154020D01*
X883450Y154200D02*
X878550Y154200D01*
X883450Y154200D02*
X883450Y150600D01*
X878550Y150600D01*
X878550Y154200D01*
X878550Y150980D02*
X883450Y150980D01*
X883450Y151360D02*
X878550Y151360D01*
X878550Y151740D02*
X883450Y151740D01*
X883450Y152120D02*
X878550Y152120D01*
X878550Y152500D02*
X883450Y152500D01*
X883450Y152880D02*
X878550Y152880D01*
X878550Y153260D02*
X883450Y153260D01*
X883450Y153640D02*
X878550Y153640D01*
X878550Y154020D02*
X883450Y154020D01*
X894550Y103400D02*
X899450Y103400D01*
X899450Y99800D01*
X894550Y99800D01*
X894550Y103400D01*
X894550Y100180D02*
X899450Y100180D01*
X899450Y100560D02*
X894550Y100560D01*
X894550Y100940D02*
X899450Y100940D01*
X899450Y101320D02*
X894550Y101320D01*
X894550Y101700D02*
X899450Y101700D01*
X899450Y102080D02*
X894550Y102080D01*
X894550Y102460D02*
X899450Y102460D01*
X899450Y102840D02*
X894550Y102840D01*
X894550Y103220D02*
X899450Y103220D01*
X883450Y103400D02*
X878550Y103400D01*
X883450Y103400D02*
X883450Y99800D01*
X878550Y99800D01*
X878550Y103400D01*
X878550Y100180D02*
X883450Y100180D01*
X883450Y100560D02*
X878550Y100560D01*
X878550Y100940D02*
X883450Y100940D01*
X883450Y101320D02*
X878550Y101320D01*
X878550Y101700D02*
X883450Y101700D01*
X883450Y102080D02*
X878550Y102080D01*
X878550Y102460D02*
X883450Y102460D01*
X883450Y102840D02*
X878550Y102840D01*
X878550Y103220D02*
X883450Y103220D01*
X894550Y52600D02*
X899450Y52600D01*
X899450Y49000D01*
X894550Y49000D01*
X894550Y52600D01*
X894550Y49380D02*
X899450Y49380D01*
X899450Y49760D02*
X894550Y49760D01*
X894550Y50140D02*
X899450Y50140D01*
X899450Y50520D02*
X894550Y50520D01*
X894550Y50900D02*
X899450Y50900D01*
X899450Y51280D02*
X894550Y51280D01*
X894550Y51660D02*
X899450Y51660D01*
X899450Y52040D02*
X894550Y52040D01*
X894550Y52420D02*
X899450Y52420D01*
X883450Y52600D02*
X878550Y52600D01*
X883450Y52600D02*
X883450Y49000D01*
X878550Y49000D01*
X878550Y52600D01*
X878550Y49380D02*
X883450Y49380D01*
X883450Y49760D02*
X878550Y49760D01*
X878550Y50140D02*
X883450Y50140D01*
X883450Y50520D02*
X878550Y50520D01*
X878550Y50900D02*
X883450Y50900D01*
X883450Y51280D02*
X878550Y51280D01*
X878550Y51660D02*
X883450Y51660D01*
X883450Y52040D02*
X878550Y52040D01*
X878550Y52420D02*
X883450Y52420D01*
X1046950Y205000D02*
X1051850Y205000D01*
X1051850Y201400D01*
X1046950Y201400D01*
X1046950Y205000D01*
X1046950Y201780D02*
X1051850Y201780D01*
X1051850Y202160D02*
X1046950Y202160D01*
X1046950Y202540D02*
X1051850Y202540D01*
X1051850Y202920D02*
X1046950Y202920D01*
X1046950Y203300D02*
X1051850Y203300D01*
X1051850Y203680D02*
X1046950Y203680D01*
X1046950Y204060D02*
X1051850Y204060D01*
X1051850Y204440D02*
X1046950Y204440D01*
X1046950Y204820D02*
X1051850Y204820D01*
X1035850Y205000D02*
X1030950Y205000D01*
X1035850Y205000D02*
X1035850Y201400D01*
X1030950Y201400D01*
X1030950Y205000D01*
X1030950Y201780D02*
X1035850Y201780D01*
X1035850Y202160D02*
X1030950Y202160D01*
X1030950Y202540D02*
X1035850Y202540D01*
X1035850Y202920D02*
X1030950Y202920D01*
X1030950Y203300D02*
X1035850Y203300D01*
X1035850Y203680D02*
X1030950Y203680D01*
X1030950Y204060D02*
X1035850Y204060D01*
X1035850Y204440D02*
X1030950Y204440D01*
X1030950Y204820D02*
X1035850Y204820D01*
X1046950Y154200D02*
X1051850Y154200D01*
X1051850Y150600D01*
X1046950Y150600D01*
X1046950Y154200D01*
X1046950Y150980D02*
X1051850Y150980D01*
X1051850Y151360D02*
X1046950Y151360D01*
X1046950Y151740D02*
X1051850Y151740D01*
X1051850Y152120D02*
X1046950Y152120D01*
X1046950Y152500D02*
X1051850Y152500D01*
X1051850Y152880D02*
X1046950Y152880D01*
X1046950Y153260D02*
X1051850Y153260D01*
X1051850Y153640D02*
X1046950Y153640D01*
X1046950Y154020D02*
X1051850Y154020D01*
X1035850Y154200D02*
X1030950Y154200D01*
X1035850Y154200D02*
X1035850Y150600D01*
X1030950Y150600D01*
X1030950Y154200D01*
X1030950Y150980D02*
X1035850Y150980D01*
X1035850Y151360D02*
X1030950Y151360D01*
X1030950Y151740D02*
X1035850Y151740D01*
X1035850Y152120D02*
X1030950Y152120D01*
X1030950Y152500D02*
X1035850Y152500D01*
X1035850Y152880D02*
X1030950Y152880D01*
X1030950Y153260D02*
X1035850Y153260D01*
X1035850Y153640D02*
X1030950Y153640D01*
X1030950Y154020D02*
X1035850Y154020D01*
X1046950Y103400D02*
X1051850Y103400D01*
X1051850Y99800D01*
X1046950Y99800D01*
X1046950Y103400D01*
X1046950Y100180D02*
X1051850Y100180D01*
X1051850Y100560D02*
X1046950Y100560D01*
X1046950Y100940D02*
X1051850Y100940D01*
X1051850Y101320D02*
X1046950Y101320D01*
X1046950Y101700D02*
X1051850Y101700D01*
X1051850Y102080D02*
X1046950Y102080D01*
X1046950Y102460D02*
X1051850Y102460D01*
X1051850Y102840D02*
X1046950Y102840D01*
X1046950Y103220D02*
X1051850Y103220D01*
X1035850Y103400D02*
X1030950Y103400D01*
X1035850Y103400D02*
X1035850Y99800D01*
X1030950Y99800D01*
X1030950Y103400D01*
X1030950Y100180D02*
X1035850Y100180D01*
X1035850Y100560D02*
X1030950Y100560D01*
X1030950Y100940D02*
X1035850Y100940D01*
X1035850Y101320D02*
X1030950Y101320D01*
X1030950Y101700D02*
X1035850Y101700D01*
X1035850Y102080D02*
X1030950Y102080D01*
X1030950Y102460D02*
X1035850Y102460D01*
X1035850Y102840D02*
X1030950Y102840D01*
X1030950Y103220D02*
X1035850Y103220D01*
X1046950Y52600D02*
X1051850Y52600D01*
X1051850Y49000D01*
X1046950Y49000D01*
X1046950Y52600D01*
X1046950Y49380D02*
X1051850Y49380D01*
X1051850Y49760D02*
X1046950Y49760D01*
X1046950Y50140D02*
X1051850Y50140D01*
X1051850Y50520D02*
X1046950Y50520D01*
X1046950Y50900D02*
X1051850Y50900D01*
X1051850Y51280D02*
X1046950Y51280D01*
X1046950Y51660D02*
X1051850Y51660D01*
X1051850Y52040D02*
X1046950Y52040D01*
X1046950Y52420D02*
X1051850Y52420D01*
X1035850Y52600D02*
X1030950Y52600D01*
X1035850Y52600D02*
X1035850Y49000D01*
X1030950Y49000D01*
X1030950Y52600D01*
X1030950Y49380D02*
X1035850Y49380D01*
X1035850Y49760D02*
X1030950Y49760D01*
X1030950Y50140D02*
X1035850Y50140D01*
X1035850Y50520D02*
X1030950Y50520D01*
X1030950Y50900D02*
X1035850Y50900D01*
X1035850Y51280D02*
X1030950Y51280D01*
X1030950Y51660D02*
X1035850Y51660D01*
X1035850Y52040D02*
X1030950Y52040D01*
X1030950Y52420D02*
X1035850Y52420D01*
X1123150Y205000D02*
X1128050Y205000D01*
X1128050Y201400D01*
X1123150Y201400D01*
X1123150Y205000D01*
X1123150Y201780D02*
X1128050Y201780D01*
X1128050Y202160D02*
X1123150Y202160D01*
X1123150Y202540D02*
X1128050Y202540D01*
X1128050Y202920D02*
X1123150Y202920D01*
X1123150Y203300D02*
X1128050Y203300D01*
X1128050Y203680D02*
X1123150Y203680D01*
X1123150Y204060D02*
X1128050Y204060D01*
X1128050Y204440D02*
X1123150Y204440D01*
X1123150Y204820D02*
X1128050Y204820D01*
X1112050Y205000D02*
X1107150Y205000D01*
X1112050Y205000D02*
X1112050Y201400D01*
X1107150Y201400D01*
X1107150Y205000D01*
X1107150Y201780D02*
X1112050Y201780D01*
X1112050Y202160D02*
X1107150Y202160D01*
X1107150Y202540D02*
X1112050Y202540D01*
X1112050Y202920D02*
X1107150Y202920D01*
X1107150Y203300D02*
X1112050Y203300D01*
X1112050Y203680D02*
X1107150Y203680D01*
X1107150Y204060D02*
X1112050Y204060D01*
X1112050Y204440D02*
X1107150Y204440D01*
X1107150Y204820D02*
X1112050Y204820D01*
X1123150Y154200D02*
X1128050Y154200D01*
X1128050Y150600D01*
X1123150Y150600D01*
X1123150Y154200D01*
X1123150Y150980D02*
X1128050Y150980D01*
X1128050Y151360D02*
X1123150Y151360D01*
X1123150Y151740D02*
X1128050Y151740D01*
X1128050Y152120D02*
X1123150Y152120D01*
X1123150Y152500D02*
X1128050Y152500D01*
X1128050Y152880D02*
X1123150Y152880D01*
X1123150Y153260D02*
X1128050Y153260D01*
X1128050Y153640D02*
X1123150Y153640D01*
X1123150Y154020D02*
X1128050Y154020D01*
X1112050Y154200D02*
X1107150Y154200D01*
X1112050Y154200D02*
X1112050Y150600D01*
X1107150Y150600D01*
X1107150Y154200D01*
X1107150Y150980D02*
X1112050Y150980D01*
X1112050Y151360D02*
X1107150Y151360D01*
X1107150Y151740D02*
X1112050Y151740D01*
X1112050Y152120D02*
X1107150Y152120D01*
X1107150Y152500D02*
X1112050Y152500D01*
X1112050Y152880D02*
X1107150Y152880D01*
X1107150Y153260D02*
X1112050Y153260D01*
X1112050Y153640D02*
X1107150Y153640D01*
X1107150Y154020D02*
X1112050Y154020D01*
X1123150Y103400D02*
X1128050Y103400D01*
X1128050Y99800D01*
X1123150Y99800D01*
X1123150Y103400D01*
X1123150Y100180D02*
X1128050Y100180D01*
X1128050Y100560D02*
X1123150Y100560D01*
X1123150Y100940D02*
X1128050Y100940D01*
X1128050Y101320D02*
X1123150Y101320D01*
X1123150Y101700D02*
X1128050Y101700D01*
X1128050Y102080D02*
X1123150Y102080D01*
X1123150Y102460D02*
X1128050Y102460D01*
X1128050Y102840D02*
X1123150Y102840D01*
X1123150Y103220D02*
X1128050Y103220D01*
X1112050Y103400D02*
X1107150Y103400D01*
X1112050Y103400D02*
X1112050Y99800D01*
X1107150Y99800D01*
X1107150Y103400D01*
X1107150Y100180D02*
X1112050Y100180D01*
X1112050Y100560D02*
X1107150Y100560D01*
X1107150Y100940D02*
X1112050Y100940D01*
X1112050Y101320D02*
X1107150Y101320D01*
X1107150Y101700D02*
X1112050Y101700D01*
X1112050Y102080D02*
X1107150Y102080D01*
X1107150Y102460D02*
X1112050Y102460D01*
X1112050Y102840D02*
X1107150Y102840D01*
X1107150Y103220D02*
X1112050Y103220D01*
X1123150Y52600D02*
X1128050Y52600D01*
X1128050Y49000D01*
X1123150Y49000D01*
X1123150Y52600D01*
X1123150Y49380D02*
X1128050Y49380D01*
X1128050Y49760D02*
X1123150Y49760D01*
X1123150Y50140D02*
X1128050Y50140D01*
X1128050Y50520D02*
X1123150Y50520D01*
X1123150Y50900D02*
X1128050Y50900D01*
X1128050Y51280D02*
X1123150Y51280D01*
X1123150Y51660D02*
X1128050Y51660D01*
X1128050Y52040D02*
X1123150Y52040D01*
X1123150Y52420D02*
X1128050Y52420D01*
X1112050Y52600D02*
X1107150Y52600D01*
X1112050Y52600D02*
X1112050Y49000D01*
X1107150Y49000D01*
X1107150Y52600D01*
X1107150Y49380D02*
X1112050Y49380D01*
X1112050Y49760D02*
X1107150Y49760D01*
X1107150Y50140D02*
X1112050Y50140D01*
X1112050Y50520D02*
X1107150Y50520D01*
X1107150Y50900D02*
X1112050Y50900D01*
X1112050Y51280D02*
X1107150Y51280D01*
X1107150Y51660D02*
X1112050Y51660D01*
X1112050Y52040D02*
X1107150Y52040D01*
X1107150Y52420D02*
X1112050Y52420D01*
M02*
