G04 EAGLE Gerber RS-274X export*
G75*
%MOMM*%
%FSLAX34Y34*%
%LPD*%
%INSoldermask Bottom*%
%IPPOS*%
%AMOC8*
5,1,8,0,0,1.08239X$1,22.5*%
G01*
%ADD10C,3.003200*%
%ADD11R,1.303200X1.203200*%
%ADD12R,1.703200X1.703200*%
%ADD13C,1.703200*%
%ADD14C,3.419200*%
%ADD15C,3.203200*%
%ADD16R,2.753200X2.703200*%
%ADD17C,1.727200*%
%ADD18C,1.879600*%
%ADD19P,2.655319X8X22.500000*%
%ADD20P,1.843527X8X22.500000*%
%ADD21C,4.191000*%
%ADD22C,1.903200*%
%ADD23C,0.241278*%
%ADD24C,0.857200*%
%ADD25C,0.807200*%

G36*
X732528Y613657D02*
X732528Y613657D01*
X732533Y613662D01*
X732537Y613659D01*
X733569Y613972D01*
X733573Y613977D01*
X733578Y613975D01*
X734529Y614483D01*
X734532Y614490D01*
X734537Y614489D01*
X735370Y615173D01*
X735372Y615180D01*
X735377Y615180D01*
X736061Y616013D01*
X736061Y616020D01*
X736067Y616021D01*
X736575Y616972D01*
X736574Y616979D01*
X736578Y616981D01*
X736891Y618013D01*
X736890Y618017D01*
X736892Y618019D01*
X736891Y618021D01*
X736893Y618022D01*
X736999Y619095D01*
X736997Y619098D01*
X736999Y619100D01*
X736999Y634100D01*
X736997Y634103D01*
X736999Y634105D01*
X736893Y635178D01*
X736888Y635183D01*
X736891Y635187D01*
X736578Y636219D01*
X736573Y636223D01*
X736575Y636228D01*
X736067Y637179D01*
X736060Y637182D01*
X736061Y637187D01*
X735377Y638020D01*
X735370Y638022D01*
X735370Y638027D01*
X734537Y638711D01*
X734530Y638711D01*
X734529Y638717D01*
X733578Y639225D01*
X733571Y639224D01*
X733569Y639228D01*
X732537Y639541D01*
X732531Y639539D01*
X732528Y639543D01*
X731455Y639649D01*
X731449Y639645D01*
X731445Y639649D01*
X730372Y639543D01*
X730367Y639538D01*
X730363Y639541D01*
X729331Y639228D01*
X729327Y639223D01*
X729322Y639225D01*
X728371Y638717D01*
X728368Y638710D01*
X728363Y638711D01*
X727530Y638027D01*
X727528Y638020D01*
X727523Y638020D01*
X726839Y637187D01*
X726839Y637180D01*
X726833Y637179D01*
X726325Y636228D01*
X726326Y636222D01*
X726322Y636219D01*
X726009Y635187D01*
X726009Y635186D01*
X726008Y635185D01*
X726011Y635181D01*
X726007Y635178D01*
X725901Y634105D01*
X725903Y634102D01*
X725901Y634100D01*
X725901Y619100D01*
X725903Y619097D01*
X725901Y619095D01*
X726007Y618022D01*
X726012Y618017D01*
X726009Y618013D01*
X726322Y616981D01*
X726327Y616977D01*
X726325Y616972D01*
X726833Y616021D01*
X726840Y616018D01*
X726839Y616013D01*
X727523Y615180D01*
X727530Y615178D01*
X727530Y615173D01*
X728363Y614489D01*
X728370Y614489D01*
X728371Y614483D01*
X729322Y613975D01*
X729329Y613976D01*
X729331Y613972D01*
X730363Y613659D01*
X730370Y613661D01*
X730372Y613657D01*
X731445Y613551D01*
X731451Y613555D01*
X731455Y613551D01*
X732528Y613657D01*
G37*
G36*
X819028Y613657D02*
X819028Y613657D01*
X819033Y613662D01*
X819037Y613659D01*
X820069Y613972D01*
X820073Y613977D01*
X820078Y613975D01*
X821029Y614483D01*
X821032Y614490D01*
X821037Y614489D01*
X821870Y615173D01*
X821872Y615180D01*
X821877Y615180D01*
X822561Y616013D01*
X822561Y616020D01*
X822567Y616021D01*
X823075Y616972D01*
X823074Y616979D01*
X823078Y616981D01*
X823391Y618013D01*
X823390Y618017D01*
X823392Y618019D01*
X823391Y618021D01*
X823393Y618022D01*
X823499Y619095D01*
X823497Y619098D01*
X823499Y619100D01*
X823499Y634100D01*
X823497Y634103D01*
X823499Y634105D01*
X823393Y635178D01*
X823388Y635183D01*
X823391Y635187D01*
X823078Y636219D01*
X823073Y636223D01*
X823075Y636228D01*
X822567Y637179D01*
X822560Y637182D01*
X822561Y637187D01*
X821877Y638020D01*
X821870Y638022D01*
X821870Y638027D01*
X821037Y638711D01*
X821030Y638711D01*
X821029Y638717D01*
X820078Y639225D01*
X820071Y639224D01*
X820069Y639228D01*
X819037Y639541D01*
X819031Y639539D01*
X819028Y639543D01*
X817955Y639649D01*
X817949Y639645D01*
X817945Y639649D01*
X816872Y639543D01*
X816867Y639538D01*
X816863Y639541D01*
X815831Y639228D01*
X815827Y639223D01*
X815822Y639225D01*
X814871Y638717D01*
X814868Y638710D01*
X814863Y638711D01*
X814030Y638027D01*
X814028Y638020D01*
X814023Y638020D01*
X813339Y637187D01*
X813339Y637180D01*
X813333Y637179D01*
X812825Y636228D01*
X812826Y636222D01*
X812822Y636219D01*
X812509Y635187D01*
X812509Y635186D01*
X812508Y635185D01*
X812511Y635181D01*
X812507Y635178D01*
X812401Y634105D01*
X812403Y634102D01*
X812401Y634100D01*
X812401Y619100D01*
X812403Y619097D01*
X812401Y619095D01*
X812507Y618022D01*
X812512Y618017D01*
X812509Y618013D01*
X812822Y616981D01*
X812827Y616977D01*
X812825Y616972D01*
X813333Y616021D01*
X813340Y616018D01*
X813339Y616013D01*
X814023Y615180D01*
X814030Y615178D01*
X814030Y615173D01*
X814863Y614489D01*
X814870Y614489D01*
X814871Y614483D01*
X815822Y613975D01*
X815829Y613976D01*
X815831Y613972D01*
X816863Y613659D01*
X816870Y613661D01*
X816872Y613657D01*
X817945Y613551D01*
X817951Y613555D01*
X817955Y613551D01*
X819028Y613657D01*
G37*
G36*
X732528Y650957D02*
X732528Y650957D01*
X732533Y650962D01*
X732537Y650959D01*
X733569Y651272D01*
X733573Y651277D01*
X733578Y651275D01*
X734529Y651783D01*
X734532Y651790D01*
X734537Y651789D01*
X735370Y652473D01*
X735372Y652480D01*
X735377Y652480D01*
X736061Y653313D01*
X736061Y653320D01*
X736067Y653321D01*
X736575Y654272D01*
X736574Y654279D01*
X736578Y654281D01*
X736891Y655313D01*
X736890Y655317D01*
X736892Y655319D01*
X736891Y655321D01*
X736893Y655322D01*
X736999Y656395D01*
X736997Y656398D01*
X736999Y656400D01*
X736999Y664400D01*
X736997Y664403D01*
X736999Y664405D01*
X736893Y665478D01*
X736888Y665483D01*
X736891Y665487D01*
X736578Y666519D01*
X736573Y666523D01*
X736575Y666528D01*
X736067Y667479D01*
X736060Y667482D01*
X736061Y667487D01*
X735377Y668320D01*
X735370Y668322D01*
X735370Y668327D01*
X734537Y669011D01*
X734530Y669011D01*
X734529Y669017D01*
X733578Y669525D01*
X733571Y669524D01*
X733569Y669528D01*
X732537Y669841D01*
X732531Y669839D01*
X732528Y669843D01*
X731455Y669949D01*
X731449Y669945D01*
X731445Y669949D01*
X730372Y669843D01*
X730367Y669838D01*
X730363Y669841D01*
X729331Y669528D01*
X729327Y669523D01*
X729322Y669525D01*
X728371Y669017D01*
X728368Y669010D01*
X728363Y669011D01*
X727530Y668327D01*
X727528Y668320D01*
X727523Y668320D01*
X726839Y667487D01*
X726839Y667480D01*
X726833Y667479D01*
X726325Y666528D01*
X726326Y666526D01*
X726325Y666526D01*
X726326Y666525D01*
X726326Y666521D01*
X726322Y666519D01*
X726009Y665487D01*
X726011Y665481D01*
X726007Y665478D01*
X725901Y664405D01*
X725903Y664402D01*
X725901Y664400D01*
X725901Y656400D01*
X725903Y656397D01*
X725901Y656395D01*
X726007Y655322D01*
X726012Y655317D01*
X726009Y655313D01*
X726322Y654281D01*
X726327Y654277D01*
X726325Y654272D01*
X726833Y653321D01*
X726840Y653318D01*
X726839Y653313D01*
X727523Y652480D01*
X727530Y652478D01*
X727530Y652473D01*
X728363Y651789D01*
X728370Y651789D01*
X728371Y651783D01*
X729322Y651275D01*
X729329Y651276D01*
X729331Y651272D01*
X730363Y650959D01*
X730370Y650961D01*
X730372Y650957D01*
X731445Y650851D01*
X731451Y650855D01*
X731455Y650851D01*
X732528Y650957D01*
G37*
G36*
X819028Y650957D02*
X819028Y650957D01*
X819033Y650962D01*
X819037Y650959D01*
X820069Y651272D01*
X820073Y651277D01*
X820078Y651275D01*
X821029Y651783D01*
X821032Y651790D01*
X821037Y651789D01*
X821870Y652473D01*
X821872Y652480D01*
X821877Y652480D01*
X822561Y653313D01*
X822561Y653320D01*
X822567Y653321D01*
X823075Y654272D01*
X823074Y654279D01*
X823078Y654281D01*
X823391Y655313D01*
X823390Y655317D01*
X823392Y655319D01*
X823391Y655321D01*
X823393Y655322D01*
X823499Y656395D01*
X823497Y656398D01*
X823499Y656400D01*
X823499Y664400D01*
X823497Y664403D01*
X823499Y664405D01*
X823393Y665478D01*
X823388Y665483D01*
X823391Y665487D01*
X823078Y666519D01*
X823073Y666523D01*
X823075Y666528D01*
X822567Y667479D01*
X822560Y667482D01*
X822561Y667487D01*
X821877Y668320D01*
X821870Y668322D01*
X821870Y668327D01*
X821037Y669011D01*
X821030Y669011D01*
X821029Y669017D01*
X820078Y669525D01*
X820071Y669524D01*
X820069Y669528D01*
X819037Y669841D01*
X819031Y669839D01*
X819028Y669843D01*
X817955Y669949D01*
X817949Y669945D01*
X817945Y669949D01*
X816872Y669843D01*
X816867Y669838D01*
X816863Y669841D01*
X815831Y669528D01*
X815827Y669523D01*
X815822Y669525D01*
X814871Y669017D01*
X814868Y669010D01*
X814863Y669011D01*
X814030Y668327D01*
X814028Y668320D01*
X814023Y668320D01*
X813339Y667487D01*
X813339Y667480D01*
X813333Y667479D01*
X812825Y666528D01*
X812826Y666526D01*
X812825Y666526D01*
X812826Y666525D01*
X812826Y666521D01*
X812822Y666519D01*
X812509Y665487D01*
X812511Y665481D01*
X812507Y665478D01*
X812401Y664405D01*
X812403Y664402D01*
X812401Y664400D01*
X812401Y656400D01*
X812403Y656397D01*
X812401Y656395D01*
X812507Y655322D01*
X812512Y655317D01*
X812509Y655313D01*
X812822Y654281D01*
X812827Y654277D01*
X812825Y654272D01*
X813333Y653321D01*
X813340Y653318D01*
X813339Y653313D01*
X814023Y652480D01*
X814030Y652478D01*
X814030Y652473D01*
X814863Y651789D01*
X814870Y651789D01*
X814871Y651783D01*
X815822Y651275D01*
X815829Y651276D01*
X815831Y651272D01*
X816863Y650959D01*
X816870Y650961D01*
X816872Y650957D01*
X817945Y650851D01*
X817951Y650855D01*
X817955Y650851D01*
X819028Y650957D01*
G37*
D10*
X25400Y647700D03*
X25400Y25400D03*
X1181100Y647700D03*
X1181100Y25400D03*
D11*
X1088000Y508000D03*
X1071000Y508000D03*
X821300Y533400D03*
X804300Y533400D03*
X1088000Y457200D03*
X1071000Y457200D03*
X821300Y431800D03*
X804300Y431800D03*
D12*
X863600Y373200D03*
D13*
X889000Y373200D03*
X914400Y373200D03*
X939800Y373200D03*
X965200Y373200D03*
X990600Y373200D03*
X1016000Y373200D03*
D14*
X752800Y368200D03*
X1126800Y368200D03*
X752800Y38200D03*
X1126800Y38200D03*
D15*
X101600Y609600D03*
X165100Y635000D03*
D16*
X200600Y635000D03*
X66100Y609600D03*
D15*
X431800Y279400D03*
X495300Y304800D03*
D16*
X530800Y304800D03*
X396300Y279400D03*
D15*
X431800Y114300D03*
X495300Y139700D03*
D16*
X530800Y139700D03*
X396300Y114300D03*
D15*
X596900Y609600D03*
X660400Y635000D03*
D16*
X695900Y635000D03*
X561400Y609600D03*
D15*
X596900Y444500D03*
X660400Y469900D03*
D16*
X695900Y469900D03*
X561400Y444500D03*
D15*
X596900Y279400D03*
X660400Y304800D03*
D16*
X695900Y304800D03*
X561400Y279400D03*
D15*
X596900Y114300D03*
X660400Y139700D03*
D16*
X695900Y139700D03*
X561400Y114300D03*
D17*
X874268Y657606D02*
X889508Y657606D01*
X889508Y612394D02*
X874268Y612394D01*
X939292Y657606D02*
X954532Y657606D01*
X954532Y612394D02*
X939292Y612394D01*
D15*
X101600Y444500D03*
X165100Y469900D03*
D16*
X200600Y469900D03*
X66100Y444500D03*
D15*
X101600Y279400D03*
X165100Y304800D03*
D16*
X200600Y304800D03*
X66100Y279400D03*
D15*
X266700Y609600D03*
X330200Y635000D03*
D16*
X365700Y635000D03*
X231200Y609600D03*
D15*
X266700Y444500D03*
X330200Y469900D03*
D16*
X365700Y469900D03*
X231200Y444500D03*
D15*
X101600Y114300D03*
X165100Y139700D03*
D16*
X200600Y139700D03*
X66100Y114300D03*
D15*
X266700Y279400D03*
X330200Y304800D03*
D16*
X365700Y304800D03*
X231200Y279400D03*
D15*
X266700Y114300D03*
X330200Y139700D03*
D16*
X365700Y139700D03*
X231200Y114300D03*
D15*
X431800Y609600D03*
X495300Y635000D03*
D16*
X530800Y635000D03*
X396300Y609600D03*
D15*
X431800Y444500D03*
X495300Y469900D03*
D16*
X530800Y469900D03*
X396300Y444500D03*
D18*
X761530Y487680D03*
X861530Y487680D03*
D19*
X164800Y635000D03*
X101600Y609600D03*
D20*
X101600Y533400D03*
X177800Y533400D03*
D21*
X139700Y584200D03*
D22*
X189700Y584200D03*
X89700Y584200D03*
D19*
X164800Y469900D03*
X101600Y444500D03*
D20*
X101600Y368300D03*
X177800Y368300D03*
D21*
X139700Y419100D03*
D22*
X189700Y419100D03*
X89700Y419100D03*
D19*
X164800Y304800D03*
X101600Y279400D03*
D20*
X101600Y203200D03*
X177800Y203200D03*
D21*
X139700Y254000D03*
D22*
X189700Y254000D03*
X89700Y254000D03*
D19*
X164800Y139700D03*
X101600Y114300D03*
D20*
X101600Y38100D03*
X177800Y38100D03*
D21*
X139700Y88900D03*
D22*
X189700Y88900D03*
X89700Y88900D03*
D19*
X329900Y304800D03*
X266700Y279400D03*
D20*
X266700Y203200D03*
X342900Y203200D03*
D21*
X304800Y254000D03*
D22*
X354800Y254000D03*
X254800Y254000D03*
D19*
X495000Y304800D03*
X431800Y279400D03*
D20*
X431800Y203200D03*
X508000Y203200D03*
D21*
X469900Y254000D03*
D22*
X519900Y254000D03*
X419900Y254000D03*
D19*
X329900Y139700D03*
X266700Y114300D03*
D20*
X266700Y38100D03*
X342900Y38100D03*
D21*
X304800Y88900D03*
D22*
X354800Y88900D03*
X254800Y88900D03*
D19*
X495000Y139700D03*
X431800Y114300D03*
D20*
X431800Y38100D03*
X508000Y38100D03*
D21*
X469900Y88900D03*
D22*
X519900Y88900D03*
X419900Y88900D03*
D19*
X660100Y635000D03*
X596900Y609600D03*
D20*
X596900Y533400D03*
X673100Y533400D03*
D21*
X635000Y584200D03*
D22*
X685000Y584200D03*
X585000Y584200D03*
D19*
X660100Y304800D03*
X596900Y279400D03*
D20*
X596900Y203200D03*
X673100Y203200D03*
D21*
X635000Y254000D03*
D22*
X685000Y254000D03*
X585000Y254000D03*
D19*
X660100Y469900D03*
X596900Y444500D03*
D20*
X596900Y368300D03*
X673100Y368300D03*
D21*
X635000Y419100D03*
D22*
X685000Y419100D03*
X585000Y419100D03*
D19*
X660100Y139700D03*
X596900Y114300D03*
D20*
X596900Y38100D03*
X673100Y38100D03*
D21*
X635000Y88900D03*
D22*
X685000Y88900D03*
X585000Y88900D03*
D19*
X329900Y635000D03*
X266700Y609600D03*
D20*
X266700Y533400D03*
X342900Y533400D03*
D21*
X304800Y584200D03*
D22*
X354800Y584200D03*
X254800Y584200D03*
D19*
X495000Y635000D03*
X431800Y609600D03*
D20*
X431800Y533400D03*
X508000Y533400D03*
D21*
X469900Y584200D03*
D22*
X519900Y584200D03*
X419900Y584200D03*
D19*
X329900Y469900D03*
X266700Y444500D03*
D20*
X266700Y368300D03*
X342900Y368300D03*
D21*
X304800Y419100D03*
D22*
X354800Y419100D03*
X254800Y419100D03*
D19*
X495000Y469900D03*
X431800Y444500D03*
D20*
X431800Y368300D03*
X508000Y368300D03*
D21*
X469900Y419100D03*
D22*
X519900Y419100D03*
X419900Y419100D03*
D23*
X805640Y281210D02*
X810560Y281210D01*
X810560Y277590D01*
X805640Y277590D01*
X805640Y281210D01*
X805640Y279882D02*
X810560Y279882D01*
X794560Y281210D02*
X789640Y281210D01*
X794560Y281210D02*
X794560Y277590D01*
X789640Y277590D01*
X789640Y281210D01*
X789640Y279882D02*
X794560Y279882D01*
X805640Y230410D02*
X810560Y230410D01*
X810560Y226790D01*
X805640Y226790D01*
X805640Y230410D01*
X805640Y229082D02*
X810560Y229082D01*
X794560Y230410D02*
X789640Y230410D01*
X794560Y230410D02*
X794560Y226790D01*
X789640Y226790D01*
X789640Y230410D01*
X789640Y229082D02*
X794560Y229082D01*
X805640Y179610D02*
X810560Y179610D01*
X810560Y175990D01*
X805640Y175990D01*
X805640Y179610D01*
X805640Y178282D02*
X810560Y178282D01*
X794560Y179610D02*
X789640Y179610D01*
X794560Y179610D02*
X794560Y175990D01*
X789640Y175990D01*
X789640Y179610D01*
X789640Y178282D02*
X794560Y178282D01*
X805640Y128810D02*
X810560Y128810D01*
X810560Y125190D01*
X805640Y125190D01*
X805640Y128810D01*
X805640Y127482D02*
X810560Y127482D01*
X794560Y128810D02*
X789640Y128810D01*
X794560Y128810D02*
X794560Y125190D01*
X789640Y125190D01*
X789640Y128810D01*
X789640Y127482D02*
X794560Y127482D01*
X881840Y281210D02*
X886760Y281210D01*
X886760Y277590D01*
X881840Y277590D01*
X881840Y281210D01*
X881840Y279882D02*
X886760Y279882D01*
X870760Y281210D02*
X865840Y281210D01*
X870760Y281210D02*
X870760Y277590D01*
X865840Y277590D01*
X865840Y281210D01*
X865840Y279882D02*
X870760Y279882D01*
X881840Y230410D02*
X886760Y230410D01*
X886760Y226790D01*
X881840Y226790D01*
X881840Y230410D01*
X881840Y229082D02*
X886760Y229082D01*
X870760Y230410D02*
X865840Y230410D01*
X870760Y230410D02*
X870760Y226790D01*
X865840Y226790D01*
X865840Y230410D01*
X865840Y229082D02*
X870760Y229082D01*
X881840Y179610D02*
X886760Y179610D01*
X886760Y175990D01*
X881840Y175990D01*
X881840Y179610D01*
X881840Y178282D02*
X886760Y178282D01*
X870760Y179610D02*
X865840Y179610D01*
X870760Y179610D02*
X870760Y175990D01*
X865840Y175990D01*
X865840Y179610D01*
X865840Y178282D02*
X870760Y178282D01*
X881840Y128810D02*
X886760Y128810D01*
X886760Y125190D01*
X881840Y125190D01*
X881840Y128810D01*
X881840Y127482D02*
X886760Y127482D01*
X870760Y128810D02*
X865840Y128810D01*
X870760Y128810D02*
X870760Y125190D01*
X865840Y125190D01*
X865840Y128810D01*
X865840Y127482D02*
X870760Y127482D01*
X1008840Y281210D02*
X1013760Y281210D01*
X1013760Y277590D01*
X1008840Y277590D01*
X1008840Y281210D01*
X1008840Y279882D02*
X1013760Y279882D01*
X997760Y281210D02*
X992840Y281210D01*
X997760Y281210D02*
X997760Y277590D01*
X992840Y277590D01*
X992840Y281210D01*
X992840Y279882D02*
X997760Y279882D01*
X1008840Y230410D02*
X1013760Y230410D01*
X1013760Y226790D01*
X1008840Y226790D01*
X1008840Y230410D01*
X1008840Y229082D02*
X1013760Y229082D01*
X997760Y230410D02*
X992840Y230410D01*
X997760Y230410D02*
X997760Y226790D01*
X992840Y226790D01*
X992840Y230410D01*
X992840Y229082D02*
X997760Y229082D01*
X1008840Y179610D02*
X1013760Y179610D01*
X1013760Y175990D01*
X1008840Y175990D01*
X1008840Y179610D01*
X1008840Y178282D02*
X1013760Y178282D01*
X997760Y179610D02*
X992840Y179610D01*
X997760Y179610D02*
X997760Y175990D01*
X992840Y175990D01*
X992840Y179610D01*
X992840Y178282D02*
X997760Y178282D01*
X1008840Y128810D02*
X1013760Y128810D01*
X1013760Y125190D01*
X1008840Y125190D01*
X1008840Y128810D01*
X1008840Y127482D02*
X1013760Y127482D01*
X997760Y128810D02*
X992840Y128810D01*
X997760Y128810D02*
X997760Y125190D01*
X992840Y125190D01*
X992840Y128810D01*
X992840Y127482D02*
X997760Y127482D01*
X1085040Y281210D02*
X1089960Y281210D01*
X1089960Y277590D01*
X1085040Y277590D01*
X1085040Y281210D01*
X1085040Y279882D02*
X1089960Y279882D01*
X1073960Y281210D02*
X1069040Y281210D01*
X1073960Y281210D02*
X1073960Y277590D01*
X1069040Y277590D01*
X1069040Y281210D01*
X1069040Y279882D02*
X1073960Y279882D01*
X1085040Y230410D02*
X1089960Y230410D01*
X1089960Y226790D01*
X1085040Y226790D01*
X1085040Y230410D01*
X1085040Y229082D02*
X1089960Y229082D01*
X1073960Y230410D02*
X1069040Y230410D01*
X1073960Y230410D02*
X1073960Y226790D01*
X1069040Y226790D01*
X1069040Y230410D01*
X1069040Y229082D02*
X1073960Y229082D01*
X1085040Y179610D02*
X1089960Y179610D01*
X1089960Y175990D01*
X1085040Y175990D01*
X1085040Y179610D01*
X1085040Y178282D02*
X1089960Y178282D01*
X1073960Y179610D02*
X1069040Y179610D01*
X1073960Y179610D02*
X1073960Y175990D01*
X1069040Y175990D01*
X1069040Y179610D01*
X1069040Y178282D02*
X1073960Y178282D01*
X1085040Y128810D02*
X1089960Y128810D01*
X1089960Y125190D01*
X1085040Y125190D01*
X1085040Y128810D01*
X1085040Y127482D02*
X1089960Y127482D01*
X1073960Y128810D02*
X1069040Y128810D01*
X1073960Y128810D02*
X1073960Y125190D01*
X1069040Y125190D01*
X1069040Y128810D01*
X1069040Y127482D02*
X1073960Y127482D01*
D24*
X804450Y616800D03*
X795950Y616800D03*
X787450Y616800D03*
X778950Y616800D03*
X770450Y616800D03*
X761950Y616800D03*
X753450Y616800D03*
X744950Y616800D03*
X744950Y630300D03*
X753450Y630300D03*
X761950Y630300D03*
X770450Y630300D03*
X778950Y630300D03*
X787450Y630300D03*
X795950Y630300D03*
X804450Y630300D03*
D25*
X796544Y148336D03*
X804672Y156464D03*
X1103376Y619760D03*
X1144016Y552704D03*
X1115568Y323088D03*
X1087120Y652272D03*
X741680Y298704D03*
X690880Y487680D03*
X719328Y286512D03*
X692912Y323088D03*
X751840Y178816D03*
X743712Y170688D03*
X694944Y178816D03*
X686816Y170688D03*
X593344Y186944D03*
X355600Y495808D03*
X556768Y262128D03*
X505968Y345440D03*
X713232Y294640D03*
X640080Y333248D03*
X869696Y268224D03*
X764032Y107696D03*
X1022096Y152400D03*
X737616Y310896D03*
X721360Y56896D03*
X713232Y65024D03*
X827024Y302768D03*
X818896Y310896D03*
X1089152Y570992D03*
X1160272Y601472D03*
X1089152Y367792D03*
X1081024Y359664D03*
X989584Y473456D03*
X924560Y577088D03*
X885952Y597408D03*
X936752Y445008D03*
X847344Y542544D03*
X1036320Y445008D03*
X1001776Y518160D03*
X1009904Y526288D03*
X1009904Y633984D03*
X995680Y459232D03*
X991616Y619760D03*
X1137920Y445008D03*
X1054608Y573024D03*
X883920Y144272D03*
X883920Y162560D03*
X999744Y237744D03*
X910336Y188976D03*
X1009904Y144272D03*
X1009904Y156464D03*
X1078992Y652272D03*
X1144016Y560832D03*
X1123696Y316992D03*
X1089152Y481584D03*
X835660Y636016D03*
X910336Y581152D03*
X1009904Y609600D03*
X1062736Y652272D03*
X985520Y613664D03*
X1078992Y538480D03*
X1072896Y566928D03*
X995680Y581152D03*
X955040Y310896D03*
X1150112Y633984D03*
X1105408Y400304D03*
X1058672Y353568D03*
X950976Y518160D03*
X1156208Y619760D03*
X1046480Y410464D03*
X940816Y491744D03*
X944880Y503936D03*
M02*
