M48
;GenerationSoftware,Autodesk,EAGLE,9.6.2*%
;CreationDate,2022-11-28T04:23:31Z*%
FMAT,2
ICI,OFF
METRIC,TZ,000.000
T12C0.350
T11C0.400
T10C0.600
T9C0.650
T8C1.000
T7C1.016
T6C1.500
T5C1.700
T4C2.200
T3C2.800
T2C3.000
T1C3.988
%
G90
M71
T1
X63500Y58420
X6350Y58420
X63500Y20320
X44450Y1270
X63500Y39370
X63500Y1270
X25400Y1270
X44450Y58420
X25400Y39370
X44450Y20320
X25400Y58420
X6350Y1270
X25400Y20320
X6350Y20320
X6350Y39370
X44450Y39370
T2
X40640Y3810
X59690Y60960
X8890Y63500
X2540Y60960
X46990Y25400
X40640Y22860
X46990Y6350
X66040Y63500
X66040Y44450
X59690Y41910
X66040Y25400
X59690Y22860
X66040Y6350
X59690Y3810
X8890Y44450
X2540Y41910
X8890Y25400
X2540Y22860
X27940Y63500
X21590Y60960
X27940Y44450
X21590Y41910
X8890Y6350
X2540Y3810
X27940Y25400
X21590Y22860
X27940Y6350
X21590Y3810
X46990Y63500
X40640Y60960
X46990Y44450
X40640Y41910
T3
X-6350Y64770
X96520Y1270
X118110Y64770
X-6350Y-3810
T4
X115220Y-3800
X77820Y-3800
X115220Y29200
X77820Y29200
T5
X39450Y1270
X11350Y58420
X1350Y58420
X11350Y1270
X11350Y39370
X1350Y39370
X1350Y1270
X11350Y20320
X1350Y20320
X20400Y20320
X49450Y39370
X30400Y20320
X20400Y39370
X30400Y39370
X49450Y20320
X39450Y58420
X49450Y58420
X39450Y20320
X20400Y58420
X30400Y58420
X39450Y39370
X58500Y1270
X68500Y1270
X30400Y1270
X58500Y39370
X68500Y39370
X20400Y1270
X58500Y20320
X68500Y20320
X49450Y1270
X58500Y58420
X68500Y58420
T6
X2540Y3810
X27910Y25400
X21590Y22860
X46960Y25400
X40640Y22860
X27910Y6350
X21590Y3810
X46960Y6350
X40640Y3810
X66010Y63500
X59690Y60960
X66010Y25400
X59690Y22860
X66010Y44450
X59690Y41910
X66010Y6350
X59690Y3810
X27910Y63500
X46960Y63500
X40640Y60960
X27910Y44450
X21590Y41910
X46960Y44450
X40640Y41910
X21590Y60960
X8860Y63500
X2540Y60960
X8860Y44450
X2540Y41910
X8860Y25400
X2540Y22860
X8860Y6350
T7
X88189Y61239
X88189Y65761
X94691Y65761
X94691Y61239
T8
X40640Y53340
X29210Y53340
X21590Y53340
X67310Y-3810
X59690Y-3810
X67310Y34290
X59690Y34290
X67310Y15240
X59690Y15240
X67310Y53340
X59690Y53340
X48260Y-3810
X40640Y-3810
X29210Y-3810
X21590Y-3810
X40640Y15240
X2540Y53340
X48260Y15240
X29210Y15240
X21590Y15240
X10160Y-3810
X88900Y29700
X91440Y29700
X93980Y29700
X96520Y29700
X99060Y29700
X101600Y29700
X104140Y29700
X40640Y34290
X10160Y15240
X2540Y15240
X10160Y34290
X29210Y34290
X2540Y-3810
X21590Y34290
X48260Y53340
X2540Y34290
X10160Y53340
X48260Y34290
T9
X78791Y48768
X83769Y48768
T10
X81795Y66040
X73145Y66040
X81795Y62660
X73145Y62660
T11
X80445Y61680
X75345Y61680
X79595Y61680
X78745Y61680
X77895Y61680
X77045Y61680
X76195Y61680
X74495Y61680
X74495Y63030
X75345Y63030
X76195Y63030
X77045Y63030
X77895Y63030
X78745Y63030
X79595Y63030
X80445Y63030
T12
X69850Y31750
X106934Y11430
X67564Y11938
X87884Y26670
X55626Y59182
X91694Y16002
X73660Y25146
X91694Y12192
X71628Y24384
X107950Y57658
X112268Y60706
X88646Y57912
X103124Y66802
X105918Y61214
X85852Y38608
X76200Y65786
X92710Y44704
X76454Y53848
X93472Y38100
X86868Y32004
X101600Y39370
X101854Y52070
X106680Y39116
X104902Y49022
X103505Y43688
X108458Y58420
X103632Y58674
X103251Y39370
X108204Y36576
X111760Y34290
X111760Y59690
X106934Y35306
X115316Y54991
X99822Y35814
X102362Y47498
X113919Y53594
X103759Y61722
X101346Y48514
X101346Y51054
X109220Y52959
X108712Y46863
X18542Y5588
X92964Y42418
X107315Y52070
X85090Y41910
X71374Y25908
X95504Y43942
X109093Y59817
X106807Y62611
X97790Y34544
X109474Y44450
X113665Y66675
X94234Y48260
X98298Y55626
X106934Y56642
X94996Y47371
X101092Y46990
X106426Y48260
X107950Y56642
X84582Y56896
X109728Y42418
X97790Y58674
X105664Y65278
X99060Y43942
X104902Y56896
X104902Y52070
X100584Y40894
X100584Y58674
X103632Y62484
X104902Y50038
X82296Y60452
X96012Y43180
X110490Y65024
X96520Y63754
X100838Y63754
X99060Y61214
X99060Y49276
X79248Y53086
X103632Y60452
X100584Y47752
X99822Y44450
X36576Y40132
X110998Y62484
X65024Y32512
X-1524Y59182
X45974Y13462
X-1524Y40132
X81534Y36322
X26924Y13462
X-1524Y21082
X79756Y5080
X68072Y9906
X83058Y26670
X17526Y59182
X85852Y12192
X17526Y40132
X83820Y16256
X111506Y31750
X65024Y51562
X108712Y12192
X78486Y25146
X103378Y50546
X103632Y63500
M30