G04 EAGLE Gerber RS-274X export*
G75*
%MOMM*%
%FSLAX34Y34*%
%LPD*%
%INBottom Copper*%
%IPPOS*%
%AMOC8*
5,1,8,0,0,1.08239X$1,22.5*%
G01*
%ADD10R,1.100000X1.000000*%
%ADD11R,1.508000X1.508000*%
%ADD12C,1.508000*%
%ADD13C,3.216000*%
%ADD14C,0.908000*%
%ADD15C,1.108000*%
%ADD16R,2.550000X2.500000*%
%ADD17C,1.524000*%
%ADD18C,1.676400*%
%ADD19P,2.435377X8X22.500000*%
%ADD20P,1.632244X8X22.500000*%
%ADD21C,0.040000*%
%ADD22C,0.152400*%
%ADD23C,0.756400*%

G36*
X732457Y614664D02*
X732457Y614664D01*
X732463Y614670D01*
X732468Y614666D01*
X733419Y614999D01*
X733423Y615006D01*
X733429Y615004D01*
X734282Y615540D01*
X734285Y615548D01*
X734291Y615547D01*
X735003Y616259D01*
X735004Y616268D01*
X735010Y616268D01*
X735546Y617121D01*
X735545Y617129D01*
X735551Y617131D01*
X735884Y618082D01*
X735883Y618083D01*
X735884Y618083D01*
X735883Y618085D01*
X735881Y618090D01*
X735886Y618093D01*
X735999Y619095D01*
X735997Y619098D01*
X735999Y619100D01*
X735999Y634100D01*
X735997Y634103D01*
X735999Y634106D01*
X735886Y635107D01*
X735880Y635113D01*
X735884Y635118D01*
X735551Y636069D01*
X735544Y636073D01*
X735546Y636079D01*
X735010Y636932D01*
X735002Y636935D01*
X735003Y636941D01*
X734291Y637653D01*
X734282Y637654D01*
X734282Y637660D01*
X733429Y638196D01*
X733421Y638195D01*
X733419Y638201D01*
X732468Y638534D01*
X732460Y638531D01*
X732457Y638536D01*
X731456Y638649D01*
X731448Y638645D01*
X731445Y638649D01*
X730443Y638536D01*
X730437Y638530D01*
X730432Y638534D01*
X729481Y638201D01*
X729477Y638194D01*
X729471Y638196D01*
X728618Y637660D01*
X728615Y637652D01*
X728609Y637653D01*
X727897Y636941D01*
X727896Y636932D01*
X727890Y636932D01*
X727354Y636079D01*
X727355Y636071D01*
X727349Y636069D01*
X727016Y635118D01*
X727019Y635110D01*
X727014Y635107D01*
X726901Y634106D01*
X726903Y634102D01*
X726901Y634100D01*
X726901Y619100D01*
X726903Y619097D01*
X726901Y619095D01*
X727014Y618093D01*
X727020Y618087D01*
X727016Y618082D01*
X727349Y617131D01*
X727356Y617127D01*
X727354Y617121D01*
X727890Y616268D01*
X727898Y616265D01*
X727897Y616259D01*
X728609Y615547D01*
X728618Y615546D01*
X728618Y615540D01*
X729471Y615004D01*
X729479Y615005D01*
X729481Y614999D01*
X730432Y614666D01*
X730440Y614669D01*
X730443Y614664D01*
X731445Y614551D01*
X731452Y614555D01*
X731456Y614551D01*
X732457Y614664D01*
G37*
G36*
X818957Y614664D02*
X818957Y614664D01*
X818963Y614670D01*
X818968Y614666D01*
X819919Y614999D01*
X819923Y615006D01*
X819929Y615004D01*
X820782Y615540D01*
X820785Y615548D01*
X820791Y615547D01*
X821503Y616259D01*
X821504Y616268D01*
X821510Y616268D01*
X822046Y617121D01*
X822045Y617129D01*
X822051Y617131D01*
X822384Y618082D01*
X822383Y618083D01*
X822384Y618083D01*
X822383Y618085D01*
X822381Y618090D01*
X822386Y618093D01*
X822499Y619095D01*
X822497Y619098D01*
X822499Y619100D01*
X822499Y634100D01*
X822497Y634103D01*
X822499Y634106D01*
X822386Y635107D01*
X822380Y635113D01*
X822384Y635118D01*
X822051Y636069D01*
X822044Y636073D01*
X822046Y636079D01*
X821510Y636932D01*
X821502Y636935D01*
X821503Y636941D01*
X820791Y637653D01*
X820782Y637654D01*
X820782Y637660D01*
X819929Y638196D01*
X819921Y638195D01*
X819919Y638201D01*
X818968Y638534D01*
X818960Y638531D01*
X818957Y638536D01*
X817956Y638649D01*
X817948Y638645D01*
X817945Y638649D01*
X816943Y638536D01*
X816937Y638530D01*
X816932Y638534D01*
X815981Y638201D01*
X815977Y638194D01*
X815971Y638196D01*
X815118Y637660D01*
X815115Y637652D01*
X815109Y637653D01*
X814397Y636941D01*
X814396Y636932D01*
X814390Y636932D01*
X813854Y636079D01*
X813855Y636071D01*
X813849Y636069D01*
X813516Y635118D01*
X813519Y635110D01*
X813514Y635107D01*
X813401Y634106D01*
X813403Y634102D01*
X813401Y634100D01*
X813401Y619100D01*
X813403Y619097D01*
X813401Y619095D01*
X813514Y618093D01*
X813520Y618087D01*
X813516Y618082D01*
X813849Y617131D01*
X813856Y617127D01*
X813854Y617121D01*
X814390Y616268D01*
X814398Y616265D01*
X814397Y616259D01*
X815109Y615547D01*
X815118Y615546D01*
X815118Y615540D01*
X815971Y615004D01*
X815979Y615005D01*
X815981Y614999D01*
X816932Y614666D01*
X816940Y614669D01*
X816943Y614664D01*
X817945Y614551D01*
X817952Y614555D01*
X817956Y614551D01*
X818957Y614664D01*
G37*
G36*
X818957Y651964D02*
X818957Y651964D01*
X818963Y651970D01*
X818968Y651966D01*
X819919Y652299D01*
X819923Y652306D01*
X819929Y652304D01*
X820782Y652840D01*
X820785Y652848D01*
X820791Y652847D01*
X821503Y653559D01*
X821504Y653568D01*
X821510Y653568D01*
X822046Y654421D01*
X822045Y654429D01*
X822051Y654431D01*
X822384Y655382D01*
X822383Y655383D01*
X822384Y655383D01*
X822383Y655385D01*
X822381Y655390D01*
X822386Y655393D01*
X822499Y656395D01*
X822497Y656398D01*
X822499Y656400D01*
X822499Y664400D01*
X822497Y664403D01*
X822499Y664406D01*
X822386Y665407D01*
X822380Y665413D01*
X822384Y665418D01*
X822051Y666369D01*
X822044Y666373D01*
X822046Y666379D01*
X821510Y667232D01*
X821502Y667235D01*
X821503Y667241D01*
X820791Y667953D01*
X820782Y667954D01*
X820782Y667960D01*
X819929Y668496D01*
X819921Y668495D01*
X819919Y668501D01*
X818968Y668834D01*
X818960Y668831D01*
X818957Y668836D01*
X817956Y668949D01*
X817948Y668945D01*
X817945Y668949D01*
X816943Y668836D01*
X816937Y668830D01*
X816932Y668834D01*
X815981Y668501D01*
X815977Y668494D01*
X815971Y668496D01*
X815118Y667960D01*
X815115Y667952D01*
X815109Y667953D01*
X814397Y667241D01*
X814396Y667232D01*
X814390Y667232D01*
X813854Y666379D01*
X813855Y666371D01*
X813849Y666369D01*
X813516Y665418D01*
X813519Y665411D01*
X813515Y665408D01*
X813515Y665407D01*
X813514Y665407D01*
X813401Y664406D01*
X813403Y664402D01*
X813401Y664400D01*
X813401Y656400D01*
X813403Y656397D01*
X813401Y656395D01*
X813514Y655393D01*
X813520Y655387D01*
X813516Y655382D01*
X813849Y654431D01*
X813856Y654427D01*
X813854Y654421D01*
X814390Y653568D01*
X814398Y653565D01*
X814397Y653559D01*
X815109Y652847D01*
X815118Y652846D01*
X815118Y652840D01*
X815971Y652304D01*
X815979Y652305D01*
X815981Y652299D01*
X816932Y651966D01*
X816940Y651969D01*
X816943Y651964D01*
X817945Y651851D01*
X817952Y651855D01*
X817956Y651851D01*
X818957Y651964D01*
G37*
G36*
X732457Y651964D02*
X732457Y651964D01*
X732463Y651970D01*
X732468Y651966D01*
X733419Y652299D01*
X733423Y652306D01*
X733429Y652304D01*
X734282Y652840D01*
X734285Y652848D01*
X734291Y652847D01*
X735003Y653559D01*
X735004Y653568D01*
X735010Y653568D01*
X735546Y654421D01*
X735545Y654429D01*
X735551Y654431D01*
X735884Y655382D01*
X735883Y655383D01*
X735884Y655383D01*
X735883Y655385D01*
X735881Y655390D01*
X735886Y655393D01*
X735999Y656395D01*
X735997Y656398D01*
X735999Y656400D01*
X735999Y664400D01*
X735997Y664403D01*
X735999Y664406D01*
X735886Y665407D01*
X735880Y665413D01*
X735884Y665418D01*
X735551Y666369D01*
X735544Y666373D01*
X735546Y666379D01*
X735010Y667232D01*
X735002Y667235D01*
X735003Y667241D01*
X734291Y667953D01*
X734282Y667954D01*
X734282Y667960D01*
X733429Y668496D01*
X733421Y668495D01*
X733419Y668501D01*
X732468Y668834D01*
X732460Y668831D01*
X732457Y668836D01*
X731456Y668949D01*
X731448Y668945D01*
X731445Y668949D01*
X730443Y668836D01*
X730437Y668830D01*
X730432Y668834D01*
X729481Y668501D01*
X729477Y668494D01*
X729471Y668496D01*
X728618Y667960D01*
X728615Y667952D01*
X728609Y667953D01*
X727897Y667241D01*
X727896Y667232D01*
X727890Y667232D01*
X727354Y666379D01*
X727355Y666371D01*
X727349Y666369D01*
X727016Y665418D01*
X727019Y665411D01*
X727015Y665408D01*
X727015Y665407D01*
X727014Y665407D01*
X726901Y664406D01*
X726903Y664402D01*
X726901Y664400D01*
X726901Y656400D01*
X726903Y656397D01*
X726901Y656395D01*
X727014Y655393D01*
X727020Y655387D01*
X727016Y655382D01*
X727349Y654431D01*
X727356Y654427D01*
X727354Y654421D01*
X727890Y653568D01*
X727898Y653565D01*
X727897Y653559D01*
X728609Y652847D01*
X728618Y652846D01*
X728618Y652840D01*
X729471Y652304D01*
X729479Y652305D01*
X729481Y652299D01*
X730432Y651966D01*
X730440Y651969D01*
X730443Y651964D01*
X731445Y651851D01*
X731452Y651855D01*
X731456Y651851D01*
X732457Y651964D01*
G37*
D10*
X1100700Y635000D03*
X1083700Y635000D03*
X808600Y533400D03*
X791600Y533400D03*
X1100700Y596900D03*
X1083700Y596900D03*
X834000Y482600D03*
X817000Y482600D03*
D11*
X863600Y373200D03*
D12*
X889000Y373200D03*
X914400Y373200D03*
X939800Y373200D03*
X965200Y373200D03*
X990600Y373200D03*
X1016000Y373200D03*
D13*
X752800Y368200D03*
X1126800Y368200D03*
X752800Y38200D03*
X1126800Y38200D03*
D14*
X804450Y616800D03*
X795950Y616800D03*
X787450Y616800D03*
X778950Y616800D03*
X770450Y616800D03*
X761950Y616800D03*
X753450Y616800D03*
X744950Y616800D03*
X744950Y630300D03*
X753450Y630300D03*
X761950Y630300D03*
X770450Y630300D03*
X778950Y630300D03*
X787450Y630300D03*
X795950Y630300D03*
X804450Y630300D03*
D15*
X817950Y660400D03*
X731450Y660400D03*
X817950Y626600D03*
X731450Y626600D03*
D16*
X200600Y635000D03*
X66100Y609600D03*
X530800Y304800D03*
X396300Y279400D03*
X530800Y139700D03*
X396300Y114300D03*
X695900Y635000D03*
X561400Y609600D03*
X695900Y469900D03*
X561400Y444500D03*
X695900Y304800D03*
X561400Y279400D03*
X695900Y139700D03*
X561400Y114300D03*
D17*
X874268Y657606D02*
X889508Y657606D01*
X889508Y612394D02*
X874268Y612394D01*
X939292Y657606D02*
X954532Y657606D01*
X954532Y612394D02*
X939292Y612394D01*
D16*
X200600Y469900D03*
X66100Y444500D03*
X200600Y304800D03*
X66100Y279400D03*
X365700Y635000D03*
X231200Y609600D03*
X365700Y469900D03*
X231200Y444500D03*
X200600Y139700D03*
X66100Y114300D03*
X365700Y304800D03*
X231200Y279400D03*
X365700Y139700D03*
X231200Y114300D03*
X530800Y635000D03*
X396300Y609600D03*
X530800Y469900D03*
X396300Y444500D03*
D18*
X761530Y487680D03*
X861530Y487680D03*
D19*
X164800Y635000D03*
X101600Y609600D03*
D20*
X101600Y533400D03*
X177800Y533400D03*
D19*
X164800Y469900D03*
X101600Y444500D03*
D20*
X101600Y368300D03*
X177800Y368300D03*
D19*
X164800Y304800D03*
X101600Y279400D03*
D20*
X101600Y203200D03*
X177800Y203200D03*
D19*
X164800Y139700D03*
X101600Y114300D03*
D20*
X101600Y38100D03*
X177800Y38100D03*
D19*
X329900Y304800D03*
X266700Y279400D03*
D20*
X266700Y203200D03*
X342900Y203200D03*
D19*
X495000Y304800D03*
X431800Y279400D03*
D20*
X431800Y203200D03*
X508000Y203200D03*
D19*
X329900Y139700D03*
X266700Y114300D03*
D20*
X266700Y38100D03*
X342900Y38100D03*
D19*
X495000Y139700D03*
X431800Y114300D03*
D20*
X431800Y38100D03*
X508000Y38100D03*
D19*
X660100Y635000D03*
X596900Y609600D03*
D20*
X596900Y533400D03*
X673100Y533400D03*
D19*
X660100Y304800D03*
X596900Y279400D03*
D20*
X596900Y203200D03*
X673100Y203200D03*
D19*
X660100Y469900D03*
X596900Y444500D03*
D20*
X596900Y368300D03*
X673100Y368300D03*
D19*
X660100Y139700D03*
X596900Y114300D03*
D20*
X596900Y38100D03*
X673100Y38100D03*
D19*
X329900Y635000D03*
X266700Y609600D03*
D20*
X266700Y533400D03*
X342900Y533400D03*
D19*
X495000Y635000D03*
X431800Y609600D03*
D20*
X431800Y533400D03*
X508000Y533400D03*
D19*
X329900Y469900D03*
X266700Y444500D03*
D20*
X266700Y368300D03*
X342900Y368300D03*
D19*
X495000Y469900D03*
X431800Y444500D03*
D20*
X431800Y368300D03*
X508000Y368300D03*
D21*
X805650Y281200D02*
X810550Y281200D01*
X810550Y277600D01*
X805650Y277600D01*
X805650Y281200D01*
X805650Y277980D02*
X810550Y277980D01*
X810550Y278360D02*
X805650Y278360D01*
X805650Y278740D02*
X810550Y278740D01*
X810550Y279120D02*
X805650Y279120D01*
X805650Y279500D02*
X810550Y279500D01*
X810550Y279880D02*
X805650Y279880D01*
X805650Y280260D02*
X810550Y280260D01*
X810550Y280640D02*
X805650Y280640D01*
X805650Y281020D02*
X810550Y281020D01*
X794550Y281200D02*
X789650Y281200D01*
X794550Y281200D02*
X794550Y277600D01*
X789650Y277600D01*
X789650Y281200D01*
X789650Y277980D02*
X794550Y277980D01*
X794550Y278360D02*
X789650Y278360D01*
X789650Y278740D02*
X794550Y278740D01*
X794550Y279120D02*
X789650Y279120D01*
X789650Y279500D02*
X794550Y279500D01*
X794550Y279880D02*
X789650Y279880D01*
X789650Y280260D02*
X794550Y280260D01*
X794550Y280640D02*
X789650Y280640D01*
X789650Y281020D02*
X794550Y281020D01*
X805650Y230400D02*
X810550Y230400D01*
X810550Y226800D01*
X805650Y226800D01*
X805650Y230400D01*
X805650Y227180D02*
X810550Y227180D01*
X810550Y227560D02*
X805650Y227560D01*
X805650Y227940D02*
X810550Y227940D01*
X810550Y228320D02*
X805650Y228320D01*
X805650Y228700D02*
X810550Y228700D01*
X810550Y229080D02*
X805650Y229080D01*
X805650Y229460D02*
X810550Y229460D01*
X810550Y229840D02*
X805650Y229840D01*
X805650Y230220D02*
X810550Y230220D01*
X794550Y230400D02*
X789650Y230400D01*
X794550Y230400D02*
X794550Y226800D01*
X789650Y226800D01*
X789650Y230400D01*
X789650Y227180D02*
X794550Y227180D01*
X794550Y227560D02*
X789650Y227560D01*
X789650Y227940D02*
X794550Y227940D01*
X794550Y228320D02*
X789650Y228320D01*
X789650Y228700D02*
X794550Y228700D01*
X794550Y229080D02*
X789650Y229080D01*
X789650Y229460D02*
X794550Y229460D01*
X794550Y229840D02*
X789650Y229840D01*
X789650Y230220D02*
X794550Y230220D01*
X805650Y179600D02*
X810550Y179600D01*
X810550Y176000D01*
X805650Y176000D01*
X805650Y179600D01*
X805650Y176380D02*
X810550Y176380D01*
X810550Y176760D02*
X805650Y176760D01*
X805650Y177140D02*
X810550Y177140D01*
X810550Y177520D02*
X805650Y177520D01*
X805650Y177900D02*
X810550Y177900D01*
X810550Y178280D02*
X805650Y178280D01*
X805650Y178660D02*
X810550Y178660D01*
X810550Y179040D02*
X805650Y179040D01*
X805650Y179420D02*
X810550Y179420D01*
X794550Y179600D02*
X789650Y179600D01*
X794550Y179600D02*
X794550Y176000D01*
X789650Y176000D01*
X789650Y179600D01*
X789650Y176380D02*
X794550Y176380D01*
X794550Y176760D02*
X789650Y176760D01*
X789650Y177140D02*
X794550Y177140D01*
X794550Y177520D02*
X789650Y177520D01*
X789650Y177900D02*
X794550Y177900D01*
X794550Y178280D02*
X789650Y178280D01*
X789650Y178660D02*
X794550Y178660D01*
X794550Y179040D02*
X789650Y179040D01*
X789650Y179420D02*
X794550Y179420D01*
X805650Y128800D02*
X810550Y128800D01*
X810550Y125200D01*
X805650Y125200D01*
X805650Y128800D01*
X805650Y125580D02*
X810550Y125580D01*
X810550Y125960D02*
X805650Y125960D01*
X805650Y126340D02*
X810550Y126340D01*
X810550Y126720D02*
X805650Y126720D01*
X805650Y127100D02*
X810550Y127100D01*
X810550Y127480D02*
X805650Y127480D01*
X805650Y127860D02*
X810550Y127860D01*
X810550Y128240D02*
X805650Y128240D01*
X805650Y128620D02*
X810550Y128620D01*
X794550Y128800D02*
X789650Y128800D01*
X794550Y128800D02*
X794550Y125200D01*
X789650Y125200D01*
X789650Y128800D01*
X789650Y125580D02*
X794550Y125580D01*
X794550Y125960D02*
X789650Y125960D01*
X789650Y126340D02*
X794550Y126340D01*
X794550Y126720D02*
X789650Y126720D01*
X789650Y127100D02*
X794550Y127100D01*
X794550Y127480D02*
X789650Y127480D01*
X789650Y127860D02*
X794550Y127860D01*
X794550Y128240D02*
X789650Y128240D01*
X789650Y128620D02*
X794550Y128620D01*
X881850Y281200D02*
X886750Y281200D01*
X886750Y277600D01*
X881850Y277600D01*
X881850Y281200D01*
X881850Y277980D02*
X886750Y277980D01*
X886750Y278360D02*
X881850Y278360D01*
X881850Y278740D02*
X886750Y278740D01*
X886750Y279120D02*
X881850Y279120D01*
X881850Y279500D02*
X886750Y279500D01*
X886750Y279880D02*
X881850Y279880D01*
X881850Y280260D02*
X886750Y280260D01*
X886750Y280640D02*
X881850Y280640D01*
X881850Y281020D02*
X886750Y281020D01*
X870750Y281200D02*
X865850Y281200D01*
X870750Y281200D02*
X870750Y277600D01*
X865850Y277600D01*
X865850Y281200D01*
X865850Y277980D02*
X870750Y277980D01*
X870750Y278360D02*
X865850Y278360D01*
X865850Y278740D02*
X870750Y278740D01*
X870750Y279120D02*
X865850Y279120D01*
X865850Y279500D02*
X870750Y279500D01*
X870750Y279880D02*
X865850Y279880D01*
X865850Y280260D02*
X870750Y280260D01*
X870750Y280640D02*
X865850Y280640D01*
X865850Y281020D02*
X870750Y281020D01*
X881850Y230400D02*
X886750Y230400D01*
X886750Y226800D01*
X881850Y226800D01*
X881850Y230400D01*
X881850Y227180D02*
X886750Y227180D01*
X886750Y227560D02*
X881850Y227560D01*
X881850Y227940D02*
X886750Y227940D01*
X886750Y228320D02*
X881850Y228320D01*
X881850Y228700D02*
X886750Y228700D01*
X886750Y229080D02*
X881850Y229080D01*
X881850Y229460D02*
X886750Y229460D01*
X886750Y229840D02*
X881850Y229840D01*
X881850Y230220D02*
X886750Y230220D01*
X870750Y230400D02*
X865850Y230400D01*
X870750Y230400D02*
X870750Y226800D01*
X865850Y226800D01*
X865850Y230400D01*
X865850Y227180D02*
X870750Y227180D01*
X870750Y227560D02*
X865850Y227560D01*
X865850Y227940D02*
X870750Y227940D01*
X870750Y228320D02*
X865850Y228320D01*
X865850Y228700D02*
X870750Y228700D01*
X870750Y229080D02*
X865850Y229080D01*
X865850Y229460D02*
X870750Y229460D01*
X870750Y229840D02*
X865850Y229840D01*
X865850Y230220D02*
X870750Y230220D01*
X881850Y179600D02*
X886750Y179600D01*
X886750Y176000D01*
X881850Y176000D01*
X881850Y179600D01*
X881850Y176380D02*
X886750Y176380D01*
X886750Y176760D02*
X881850Y176760D01*
X881850Y177140D02*
X886750Y177140D01*
X886750Y177520D02*
X881850Y177520D01*
X881850Y177900D02*
X886750Y177900D01*
X886750Y178280D02*
X881850Y178280D01*
X881850Y178660D02*
X886750Y178660D01*
X886750Y179040D02*
X881850Y179040D01*
X881850Y179420D02*
X886750Y179420D01*
X870750Y179600D02*
X865850Y179600D01*
X870750Y179600D02*
X870750Y176000D01*
X865850Y176000D01*
X865850Y179600D01*
X865850Y176380D02*
X870750Y176380D01*
X870750Y176760D02*
X865850Y176760D01*
X865850Y177140D02*
X870750Y177140D01*
X870750Y177520D02*
X865850Y177520D01*
X865850Y177900D02*
X870750Y177900D01*
X870750Y178280D02*
X865850Y178280D01*
X865850Y178660D02*
X870750Y178660D01*
X870750Y179040D02*
X865850Y179040D01*
X865850Y179420D02*
X870750Y179420D01*
X881850Y128800D02*
X886750Y128800D01*
X886750Y125200D01*
X881850Y125200D01*
X881850Y128800D01*
X881850Y125580D02*
X886750Y125580D01*
X886750Y125960D02*
X881850Y125960D01*
X881850Y126340D02*
X886750Y126340D01*
X886750Y126720D02*
X881850Y126720D01*
X881850Y127100D02*
X886750Y127100D01*
X886750Y127480D02*
X881850Y127480D01*
X881850Y127860D02*
X886750Y127860D01*
X886750Y128240D02*
X881850Y128240D01*
X881850Y128620D02*
X886750Y128620D01*
X870750Y128800D02*
X865850Y128800D01*
X870750Y128800D02*
X870750Y125200D01*
X865850Y125200D01*
X865850Y128800D01*
X865850Y125580D02*
X870750Y125580D01*
X870750Y125960D02*
X865850Y125960D01*
X865850Y126340D02*
X870750Y126340D01*
X870750Y126720D02*
X865850Y126720D01*
X865850Y127100D02*
X870750Y127100D01*
X870750Y127480D02*
X865850Y127480D01*
X865850Y127860D02*
X870750Y127860D01*
X870750Y128240D02*
X865850Y128240D01*
X865850Y128620D02*
X870750Y128620D01*
X1008850Y281200D02*
X1013750Y281200D01*
X1013750Y277600D01*
X1008850Y277600D01*
X1008850Y281200D01*
X1008850Y277980D02*
X1013750Y277980D01*
X1013750Y278360D02*
X1008850Y278360D01*
X1008850Y278740D02*
X1013750Y278740D01*
X1013750Y279120D02*
X1008850Y279120D01*
X1008850Y279500D02*
X1013750Y279500D01*
X1013750Y279880D02*
X1008850Y279880D01*
X1008850Y280260D02*
X1013750Y280260D01*
X1013750Y280640D02*
X1008850Y280640D01*
X1008850Y281020D02*
X1013750Y281020D01*
X997750Y281200D02*
X992850Y281200D01*
X997750Y281200D02*
X997750Y277600D01*
X992850Y277600D01*
X992850Y281200D01*
X992850Y277980D02*
X997750Y277980D01*
X997750Y278360D02*
X992850Y278360D01*
X992850Y278740D02*
X997750Y278740D01*
X997750Y279120D02*
X992850Y279120D01*
X992850Y279500D02*
X997750Y279500D01*
X997750Y279880D02*
X992850Y279880D01*
X992850Y280260D02*
X997750Y280260D01*
X997750Y280640D02*
X992850Y280640D01*
X992850Y281020D02*
X997750Y281020D01*
X1008850Y230400D02*
X1013750Y230400D01*
X1013750Y226800D01*
X1008850Y226800D01*
X1008850Y230400D01*
X1008850Y227180D02*
X1013750Y227180D01*
X1013750Y227560D02*
X1008850Y227560D01*
X1008850Y227940D02*
X1013750Y227940D01*
X1013750Y228320D02*
X1008850Y228320D01*
X1008850Y228700D02*
X1013750Y228700D01*
X1013750Y229080D02*
X1008850Y229080D01*
X1008850Y229460D02*
X1013750Y229460D01*
X1013750Y229840D02*
X1008850Y229840D01*
X1008850Y230220D02*
X1013750Y230220D01*
X997750Y230400D02*
X992850Y230400D01*
X997750Y230400D02*
X997750Y226800D01*
X992850Y226800D01*
X992850Y230400D01*
X992850Y227180D02*
X997750Y227180D01*
X997750Y227560D02*
X992850Y227560D01*
X992850Y227940D02*
X997750Y227940D01*
X997750Y228320D02*
X992850Y228320D01*
X992850Y228700D02*
X997750Y228700D01*
X997750Y229080D02*
X992850Y229080D01*
X992850Y229460D02*
X997750Y229460D01*
X997750Y229840D02*
X992850Y229840D01*
X992850Y230220D02*
X997750Y230220D01*
X1008850Y179600D02*
X1013750Y179600D01*
X1013750Y176000D01*
X1008850Y176000D01*
X1008850Y179600D01*
X1008850Y176380D02*
X1013750Y176380D01*
X1013750Y176760D02*
X1008850Y176760D01*
X1008850Y177140D02*
X1013750Y177140D01*
X1013750Y177520D02*
X1008850Y177520D01*
X1008850Y177900D02*
X1013750Y177900D01*
X1013750Y178280D02*
X1008850Y178280D01*
X1008850Y178660D02*
X1013750Y178660D01*
X1013750Y179040D02*
X1008850Y179040D01*
X1008850Y179420D02*
X1013750Y179420D01*
X997750Y179600D02*
X992850Y179600D01*
X997750Y179600D02*
X997750Y176000D01*
X992850Y176000D01*
X992850Y179600D01*
X992850Y176380D02*
X997750Y176380D01*
X997750Y176760D02*
X992850Y176760D01*
X992850Y177140D02*
X997750Y177140D01*
X997750Y177520D02*
X992850Y177520D01*
X992850Y177900D02*
X997750Y177900D01*
X997750Y178280D02*
X992850Y178280D01*
X992850Y178660D02*
X997750Y178660D01*
X997750Y179040D02*
X992850Y179040D01*
X992850Y179420D02*
X997750Y179420D01*
X1008850Y128800D02*
X1013750Y128800D01*
X1013750Y125200D01*
X1008850Y125200D01*
X1008850Y128800D01*
X1008850Y125580D02*
X1013750Y125580D01*
X1013750Y125960D02*
X1008850Y125960D01*
X1008850Y126340D02*
X1013750Y126340D01*
X1013750Y126720D02*
X1008850Y126720D01*
X1008850Y127100D02*
X1013750Y127100D01*
X1013750Y127480D02*
X1008850Y127480D01*
X1008850Y127860D02*
X1013750Y127860D01*
X1013750Y128240D02*
X1008850Y128240D01*
X1008850Y128620D02*
X1013750Y128620D01*
X997750Y128800D02*
X992850Y128800D01*
X997750Y128800D02*
X997750Y125200D01*
X992850Y125200D01*
X992850Y128800D01*
X992850Y125580D02*
X997750Y125580D01*
X997750Y125960D02*
X992850Y125960D01*
X992850Y126340D02*
X997750Y126340D01*
X997750Y126720D02*
X992850Y126720D01*
X992850Y127100D02*
X997750Y127100D01*
X997750Y127480D02*
X992850Y127480D01*
X992850Y127860D02*
X997750Y127860D01*
X997750Y128240D02*
X992850Y128240D01*
X992850Y128620D02*
X997750Y128620D01*
X1085050Y281200D02*
X1089950Y281200D01*
X1089950Y277600D01*
X1085050Y277600D01*
X1085050Y281200D01*
X1085050Y277980D02*
X1089950Y277980D01*
X1089950Y278360D02*
X1085050Y278360D01*
X1085050Y278740D02*
X1089950Y278740D01*
X1089950Y279120D02*
X1085050Y279120D01*
X1085050Y279500D02*
X1089950Y279500D01*
X1089950Y279880D02*
X1085050Y279880D01*
X1085050Y280260D02*
X1089950Y280260D01*
X1089950Y280640D02*
X1085050Y280640D01*
X1085050Y281020D02*
X1089950Y281020D01*
X1073950Y281200D02*
X1069050Y281200D01*
X1073950Y281200D02*
X1073950Y277600D01*
X1069050Y277600D01*
X1069050Y281200D01*
X1069050Y277980D02*
X1073950Y277980D01*
X1073950Y278360D02*
X1069050Y278360D01*
X1069050Y278740D02*
X1073950Y278740D01*
X1073950Y279120D02*
X1069050Y279120D01*
X1069050Y279500D02*
X1073950Y279500D01*
X1073950Y279880D02*
X1069050Y279880D01*
X1069050Y280260D02*
X1073950Y280260D01*
X1073950Y280640D02*
X1069050Y280640D01*
X1069050Y281020D02*
X1073950Y281020D01*
X1085050Y230400D02*
X1089950Y230400D01*
X1089950Y226800D01*
X1085050Y226800D01*
X1085050Y230400D01*
X1085050Y227180D02*
X1089950Y227180D01*
X1089950Y227560D02*
X1085050Y227560D01*
X1085050Y227940D02*
X1089950Y227940D01*
X1089950Y228320D02*
X1085050Y228320D01*
X1085050Y228700D02*
X1089950Y228700D01*
X1089950Y229080D02*
X1085050Y229080D01*
X1085050Y229460D02*
X1089950Y229460D01*
X1089950Y229840D02*
X1085050Y229840D01*
X1085050Y230220D02*
X1089950Y230220D01*
X1073950Y230400D02*
X1069050Y230400D01*
X1073950Y230400D02*
X1073950Y226800D01*
X1069050Y226800D01*
X1069050Y230400D01*
X1069050Y227180D02*
X1073950Y227180D01*
X1073950Y227560D02*
X1069050Y227560D01*
X1069050Y227940D02*
X1073950Y227940D01*
X1073950Y228320D02*
X1069050Y228320D01*
X1069050Y228700D02*
X1073950Y228700D01*
X1073950Y229080D02*
X1069050Y229080D01*
X1069050Y229460D02*
X1073950Y229460D01*
X1073950Y229840D02*
X1069050Y229840D01*
X1069050Y230220D02*
X1073950Y230220D01*
X1085050Y179600D02*
X1089950Y179600D01*
X1089950Y176000D01*
X1085050Y176000D01*
X1085050Y179600D01*
X1085050Y176380D02*
X1089950Y176380D01*
X1089950Y176760D02*
X1085050Y176760D01*
X1085050Y177140D02*
X1089950Y177140D01*
X1089950Y177520D02*
X1085050Y177520D01*
X1085050Y177900D02*
X1089950Y177900D01*
X1089950Y178280D02*
X1085050Y178280D01*
X1085050Y178660D02*
X1089950Y178660D01*
X1089950Y179040D02*
X1085050Y179040D01*
X1085050Y179420D02*
X1089950Y179420D01*
X1073950Y179600D02*
X1069050Y179600D01*
X1073950Y179600D02*
X1073950Y176000D01*
X1069050Y176000D01*
X1069050Y179600D01*
X1069050Y176380D02*
X1073950Y176380D01*
X1073950Y176760D02*
X1069050Y176760D01*
X1069050Y177140D02*
X1073950Y177140D01*
X1073950Y177520D02*
X1069050Y177520D01*
X1069050Y177900D02*
X1073950Y177900D01*
X1073950Y178280D02*
X1069050Y178280D01*
X1069050Y178660D02*
X1073950Y178660D01*
X1073950Y179040D02*
X1069050Y179040D01*
X1069050Y179420D02*
X1073950Y179420D01*
X1085050Y128800D02*
X1089950Y128800D01*
X1089950Y125200D01*
X1085050Y125200D01*
X1085050Y128800D01*
X1085050Y125580D02*
X1089950Y125580D01*
X1089950Y125960D02*
X1085050Y125960D01*
X1085050Y126340D02*
X1089950Y126340D01*
X1089950Y126720D02*
X1085050Y126720D01*
X1085050Y127100D02*
X1089950Y127100D01*
X1089950Y127480D02*
X1085050Y127480D01*
X1085050Y127860D02*
X1089950Y127860D01*
X1089950Y128240D02*
X1085050Y128240D01*
X1085050Y128620D02*
X1089950Y128620D01*
X1073950Y128800D02*
X1069050Y128800D01*
X1073950Y128800D02*
X1073950Y125200D01*
X1069050Y125200D01*
X1069050Y128800D01*
X1069050Y125580D02*
X1073950Y125580D01*
X1073950Y125960D02*
X1069050Y125960D01*
X1069050Y126340D02*
X1073950Y126340D01*
X1073950Y126720D02*
X1069050Y126720D01*
X1069050Y127100D02*
X1073950Y127100D01*
X1073950Y127480D02*
X1069050Y127480D01*
X1069050Y127860D02*
X1073950Y127860D01*
X1073950Y128240D02*
X1069050Y128240D01*
X1069050Y128620D02*
X1073950Y128620D01*
D22*
X809244Y127508D02*
X809244Y150368D01*
X808100Y177800D02*
X816864Y177800D01*
X809244Y127508D02*
X808100Y127000D01*
X807720Y177800D02*
X807720Y228092D01*
X808100Y228600D01*
X808100Y177800D02*
X807720Y177800D01*
X809244Y279908D02*
X816864Y279908D01*
X809244Y279908D02*
X808100Y279400D01*
X1103376Y648716D02*
X1110996Y648716D01*
X1141476Y618236D01*
X1141476Y563372D01*
X1144524Y560324D01*
X1144524Y478028D01*
X1059180Y392684D01*
D23*
X809244Y150368D03*
X816864Y177800D03*
X816864Y279908D03*
X1103376Y648716D03*
X1059180Y392684D03*
D22*
X1078992Y125984D02*
X1086612Y125984D01*
X1078992Y125984D02*
X1074420Y121412D01*
X1068324Y121412D01*
X1065276Y124460D01*
X1065276Y156464D01*
X1086612Y177800D01*
X1087500Y127000D02*
X1086612Y125984D01*
X1086612Y177800D02*
X1087500Y177800D01*
X1088136Y229616D02*
X1088136Y278384D01*
X1088136Y229616D02*
X1087500Y228600D01*
X1088136Y278384D02*
X1087500Y279400D01*
X1062228Y613664D02*
X1074420Y625856D01*
X1062228Y613664D02*
X1062228Y606044D01*
X1065276Y602996D01*
X1075944Y602996D01*
X1077468Y604520D01*
X1091184Y604520D01*
X1092708Y602996D01*
X1092708Y590804D01*
X1100328Y583184D01*
X1124712Y583184D01*
X1127760Y580136D01*
X1127760Y516128D01*
X1094232Y482600D01*
X1094232Y442976D01*
X1053084Y401828D01*
X1050036Y401828D01*
X1040892Y392684D02*
X1086612Y346964D01*
X1086612Y279908D01*
X1087500Y279400D01*
X1088136Y228092D02*
X1088136Y177800D01*
X1087500Y177800D01*
X1088136Y228092D02*
X1087500Y228600D01*
D23*
X1074420Y625856D03*
X1050036Y401828D03*
X1040892Y392684D03*
D22*
X790956Y279908D02*
X682752Y388112D01*
X489204Y513080D02*
X137160Y513080D01*
X85344Y564896D01*
X80772Y564896D01*
X67056Y578612D01*
X67056Y609092D01*
X790956Y279908D02*
X792100Y279400D01*
X67056Y609092D02*
X66100Y609600D01*
D23*
X682752Y388112D03*
X489204Y513080D03*
D22*
X726948Y293624D02*
X790956Y229616D01*
X669036Y351536D02*
X132588Y351536D01*
X83820Y400304D01*
X80772Y400304D01*
X67056Y414020D01*
X67056Y444500D01*
X790956Y229616D02*
X792100Y228600D01*
X67056Y444500D02*
X66100Y444500D01*
D23*
X726948Y293624D03*
X669036Y351536D03*
D22*
X790956Y220472D02*
X790956Y177800D01*
X688848Y340868D02*
X124968Y340868D01*
X67056Y282956D01*
X67056Y279908D01*
X790956Y177800D02*
X792100Y177800D01*
X67056Y279908D02*
X66100Y279400D01*
D23*
X790956Y220472D03*
X688848Y340868D03*
D22*
X763524Y127508D02*
X790956Y127508D01*
X99060Y51308D02*
X67056Y83312D01*
X67056Y113792D01*
X790956Y127508D02*
X792100Y127000D01*
X67056Y113792D02*
X66100Y114300D01*
D23*
X763524Y127508D03*
X99060Y51308D03*
D22*
X815340Y125984D02*
X867156Y125984D01*
X815340Y125984D02*
X810768Y121412D01*
X739140Y121412D01*
X254508Y555752D02*
X231648Y578612D01*
X231648Y609092D01*
X867156Y125984D02*
X868300Y127000D01*
X231648Y609092D02*
X231200Y609600D01*
D23*
X739140Y121412D03*
X254508Y555752D03*
D22*
X830580Y177800D02*
X868300Y177800D01*
X830580Y177800D02*
X818388Y165608D01*
X685800Y165608D01*
X256032Y389636D02*
X231648Y414020D01*
X231648Y444500D01*
X231200Y444500D01*
D23*
X685800Y165608D03*
X256032Y389636D03*
D22*
X815340Y229616D02*
X867156Y229616D01*
X815340Y229616D02*
X787908Y257048D01*
X772668Y257048D01*
X729996Y299720D01*
X717804Y299720D01*
X714756Y296672D01*
X513588Y334772D02*
X457200Y334772D01*
X449580Y327152D01*
X344424Y327152D01*
X339852Y331724D01*
X315468Y331724D01*
X289560Y305816D01*
X256032Y305816D01*
X230124Y279908D01*
X867156Y229616D02*
X868300Y228600D01*
X231200Y279400D02*
X230124Y279908D01*
D23*
X714756Y296672D03*
X513588Y334772D03*
D22*
X826008Y279908D02*
X867156Y279908D01*
X826008Y279908D02*
X816864Y289052D01*
X257556Y57404D02*
X231648Y83312D01*
X231648Y113792D01*
X867156Y279908D02*
X868300Y279400D01*
X231648Y113792D02*
X231200Y114300D01*
D23*
X816864Y289052D03*
X257556Y57404D03*
D22*
X1072896Y127508D02*
X1072896Y154940D01*
X1092708Y174752D01*
X1092708Y350012D01*
X1019556Y423164D01*
X1019556Y468884D01*
X1013460Y474980D01*
X894588Y474980D01*
X850392Y519176D01*
X460248Y519176D01*
X414528Y564896D01*
X411480Y564896D01*
X397764Y578612D01*
X397764Y609092D01*
X1071500Y127000D02*
X1072896Y127508D01*
X397764Y609092D02*
X396300Y609600D01*
X1042416Y177800D02*
X1071500Y177800D01*
X813816Y263144D02*
X780288Y263144D01*
X685800Y357632D01*
X457200Y357632D01*
X416052Y398780D01*
X411480Y398780D01*
X397764Y412496D01*
X397764Y444500D01*
X396300Y444500D01*
D23*
X1042416Y177800D03*
X813816Y263144D03*
D22*
X999744Y156464D02*
X1071372Y228092D01*
X999744Y156464D02*
X685800Y156464D01*
X620268Y221996D01*
X423672Y221996D01*
X397764Y247904D01*
X397764Y278384D01*
X1071372Y228092D02*
X1071500Y228600D01*
X397764Y278384D02*
X396300Y279400D01*
X1071372Y278384D02*
X1071372Y237236D01*
X894588Y19304D02*
X464820Y19304D01*
X414528Y69596D01*
X411480Y69596D01*
X397764Y83312D01*
X397764Y113792D01*
X1071372Y278384D02*
X1071500Y279400D01*
X397764Y113792D02*
X396300Y114300D01*
D23*
X1071372Y237236D03*
X894588Y19304D03*
D22*
X995172Y279908D02*
X915924Y359156D01*
X585216Y555752D02*
X562356Y578612D01*
X562356Y609092D01*
X995172Y279908D02*
X995300Y279400D01*
X562356Y609092D02*
X561400Y609600D01*
D23*
X915924Y359156D03*
X585216Y555752D03*
D22*
X946404Y229616D02*
X995172Y229616D01*
X946404Y229616D02*
X902208Y273812D01*
X781812Y273812D01*
X667512Y388112D01*
X588264Y388112D01*
X562356Y414020D01*
X562356Y444500D01*
X995172Y229616D02*
X995300Y228600D01*
X562356Y444500D02*
X561400Y444500D01*
X893064Y177800D02*
X995300Y177800D01*
X893064Y177800D02*
X888492Y182372D01*
X830580Y182372D01*
X819912Y171704D01*
X675132Y171704D01*
X620268Y226568D01*
X583692Y226568D01*
X562356Y247904D01*
X562356Y278384D01*
X561400Y279400D01*
X891540Y125984D02*
X995172Y125984D01*
X891540Y125984D02*
X822960Y57404D01*
X588264Y57404D01*
X562356Y83312D01*
X562356Y113792D01*
X995172Y125984D02*
X995300Y127000D01*
X562356Y113792D02*
X561400Y114300D01*
X260604Y635000D02*
X200600Y635000D01*
X260604Y635000D02*
X288036Y662432D01*
X339852Y662432D01*
X364236Y638048D01*
X364236Y635000D01*
X365700Y635000D01*
X530352Y635000D02*
X530352Y638048D01*
X505968Y662432D01*
X388620Y662432D01*
X364236Y638048D01*
X530352Y635000D02*
X530800Y635000D01*
X365700Y635000D02*
X364236Y638048D01*
X893064Y481076D02*
X1013460Y481076D01*
X893064Y481076D02*
X851916Y522224D01*
X787908Y522224D01*
X696468Y613664D01*
X696468Y635000D01*
X695900Y635000D01*
X591312Y635000D02*
X530800Y635000D01*
X591312Y635000D02*
X618744Y662432D01*
X670560Y662432D01*
X694944Y638048D01*
X694944Y635000D01*
X695900Y635000D01*
D23*
X1013460Y481076D03*
D22*
X1039368Y365252D02*
X1057656Y365252D01*
X1039368Y365252D02*
X941832Y462788D01*
X886968Y462788D01*
X862584Y487172D01*
X861530Y487680D01*
D23*
X1057656Y365252D03*
D22*
X260604Y139700D02*
X200600Y139700D01*
X260604Y139700D02*
X288036Y167132D01*
X339852Y167132D01*
X364236Y142748D01*
X364236Y139700D01*
X365700Y139700D01*
X530352Y139700D02*
X530352Y142748D01*
X505968Y167132D01*
X388620Y167132D01*
X364236Y142748D01*
X530352Y139700D02*
X530800Y139700D01*
X365700Y139700D02*
X364236Y142748D01*
X694944Y142748D02*
X694944Y139700D01*
X694944Y142748D02*
X670560Y167132D01*
X554736Y167132D01*
X530352Y142748D01*
X694944Y139700D02*
X695900Y139700D01*
X530800Y139700D02*
X530352Y142748D01*
X818388Y444500D02*
X818388Y482600D01*
X818388Y444500D02*
X888492Y374396D01*
X818388Y482600D02*
X817000Y482600D01*
X888492Y374396D02*
X889000Y373200D01*
X1030224Y662432D02*
X1127760Y662432D01*
X961644Y526796D02*
X961644Y510032D01*
X961644Y526796D02*
X961644Y554228D01*
X961644Y526796D02*
X1013460Y526796D01*
X1121664Y546608D02*
X1121664Y577088D01*
X1121664Y546608D02*
X1088136Y513080D01*
X1088136Y452120D01*
X1085088Y449072D01*
X1078992Y449072D01*
X1013460Y514604D01*
X1013460Y526796D01*
X1085088Y449072D02*
X1088136Y446024D01*
D23*
X1030224Y662432D03*
X1127760Y662432D03*
X961644Y554228D03*
X961644Y510032D03*
X1013460Y526796D03*
X1121664Y577088D03*
X1088136Y446024D03*
D22*
X1030224Y552704D02*
X1030224Y596900D01*
X958596Y668528D01*
X813816Y668528D01*
X780288Y635000D01*
X780288Y630428D01*
X778950Y630300D01*
X771144Y621284D02*
X771144Y618236D01*
X771144Y621284D02*
X778764Y628904D01*
X771144Y618236D02*
X770450Y616800D01*
X778764Y628904D02*
X778950Y630300D01*
D23*
X1030224Y552704D03*
D22*
X1085088Y532892D02*
X1094232Y532892D01*
X1085088Y532892D02*
X1072896Y545084D01*
X1027176Y545084D01*
X993648Y578612D01*
X993648Y622808D01*
D23*
X1094232Y532892D03*
X993648Y622808D03*
D22*
X1082040Y499364D02*
X1082040Y455168D01*
X1082040Y499364D02*
X1048512Y532892D01*
X946404Y650240D02*
X946404Y656336D01*
X946404Y650240D02*
X882396Y586232D01*
X882396Y580136D01*
X885444Y577088D01*
X981456Y577088D01*
X1025652Y532892D01*
X1048512Y532892D01*
X946404Y656336D02*
X946912Y657606D01*
D23*
X1082040Y455168D03*
X1048512Y532892D03*
D22*
X943356Y228092D02*
X885444Y228092D01*
X943356Y228092D02*
X947928Y223520D01*
X998220Y223520D01*
X1001268Y226568D01*
X1001268Y231140D01*
X955548Y276860D01*
X886968Y276860D01*
X885444Y278384D01*
X884300Y228600D02*
X885444Y228092D01*
X885444Y278384D02*
X884300Y279400D01*
X883920Y147320D02*
X883920Y127508D01*
X883920Y170180D02*
X883920Y177800D01*
X883920Y127508D02*
X884300Y127000D01*
X884300Y177800D02*
X883920Y177800D01*
X1094232Y651764D02*
X1097280Y651764D01*
X1100328Y654812D01*
X1109472Y654812D01*
X1144524Y619760D01*
X1144524Y567944D01*
X1147572Y564896D01*
X1147572Y471932D01*
X1068324Y392684D01*
X998220Y223520D02*
X998220Y183896D01*
X1001268Y180848D01*
X1001268Y174752D01*
X986028Y159512D01*
X894588Y159512D01*
X883920Y170180D01*
D23*
X883920Y147320D03*
X883920Y170180D03*
X1094232Y651764D03*
X1068324Y392684D03*
D22*
X1011936Y228092D02*
X1011936Y177800D01*
X1011300Y177800D01*
X1011936Y228092D02*
X1011300Y228600D01*
X1011936Y156464D02*
X1011936Y127508D01*
X1011936Y156464D02*
X1077468Y221996D01*
X1077468Y281432D01*
X1074420Y284480D01*
X1016508Y284480D01*
X1011936Y279908D01*
X1011936Y127508D02*
X1011300Y127000D01*
X1011300Y279400D02*
X1011936Y279908D01*
X1031748Y651764D02*
X1071372Y651764D01*
X1031748Y651764D02*
X1024128Y659384D01*
X1024128Y665480D01*
X1027176Y668528D01*
X1144524Y668528D01*
X1153668Y659384D01*
X1153668Y183896D01*
X1088136Y118364D01*
X1019556Y118364D01*
X1011936Y125984D01*
X1011300Y127000D01*
X1011936Y229616D02*
X1011936Y278384D01*
X1011936Y229616D02*
X1011300Y228600D01*
X1011936Y278384D02*
X1011300Y279400D01*
D23*
X1071372Y651764D03*
D22*
X1100328Y635000D02*
X1100328Y609092D01*
X1100328Y596900D01*
X1100700Y596900D01*
X1100700Y635000D02*
X1100328Y635000D01*
X1100328Y609092D02*
X1080516Y609092D01*
X1068324Y609092D01*
X1100700Y635000D02*
X1115568Y635000D01*
X1080516Y610616D02*
X1080516Y609092D01*
X835152Y488696D02*
X835152Y482600D01*
X835152Y488696D02*
X839724Y493268D01*
X839724Y534416D02*
X809244Y534416D01*
X808600Y533400D01*
X876300Y570992D02*
X922020Y570992D01*
X876300Y570992D02*
X839724Y534416D01*
X835152Y482600D02*
X894588Y423164D01*
X835152Y482600D02*
X834000Y482600D01*
D23*
X1068324Y609092D03*
X1115568Y635000D03*
X1080516Y610616D03*
X839724Y493268D03*
X839724Y534416D03*
X922020Y570992D03*
X894588Y423164D03*
D22*
X792480Y609092D02*
X792480Y612140D01*
X792480Y609092D02*
X792480Y534416D01*
X792480Y612140D02*
X797052Y616712D01*
X792480Y534416D02*
X791600Y533400D01*
X797052Y616712D02*
X795950Y616800D01*
X754380Y616712D02*
X754380Y613664D01*
X758952Y609092D01*
X792480Y609092D01*
X754380Y616712D02*
X753450Y616800D01*
X792480Y532892D02*
X800100Y525272D01*
X900684Y525272D01*
X792480Y532892D02*
X791600Y533400D01*
D23*
X900684Y525272D03*
D22*
X1068324Y635000D02*
X1083700Y635000D01*
D23*
X1068324Y635000D03*
D22*
X1036320Y627380D02*
X1008888Y627380D01*
X1036320Y627380D02*
X1066800Y596900D01*
X1078992Y596900D02*
X1083700Y596900D01*
X1078992Y596900D02*
X1066800Y596900D01*
X1078992Y596900D02*
X1078992Y570992D01*
D23*
X1008888Y627380D03*
X1078992Y570992D03*
D22*
X1028700Y538988D02*
X987552Y580136D01*
X1028700Y538988D02*
X1069848Y538988D01*
X984504Y583184D02*
X888492Y583184D01*
X984504Y583184D02*
X987552Y580136D01*
D23*
X987552Y580136D03*
X1069848Y538988D03*
X888492Y583184D03*
D22*
X262128Y470408D02*
X201168Y470408D01*
X262128Y470408D02*
X288036Y496316D01*
X341376Y496316D01*
X364236Y473456D01*
X364236Y470408D01*
X201168Y470408D02*
X200600Y469900D01*
X364236Y470408D02*
X365700Y469900D01*
X1138428Y517652D02*
X1138428Y557276D01*
X1138428Y517652D02*
X1107948Y487172D01*
X1013460Y465836D02*
X899160Y465836D01*
X865632Y499364D01*
X725424Y499364D01*
X697992Y471932D02*
X696468Y470408D01*
X697992Y471932D02*
X725424Y499364D01*
X696468Y470408D02*
X695900Y469900D01*
X592836Y470408D02*
X531876Y470408D01*
X592836Y470408D02*
X618744Y496316D01*
X673608Y496316D01*
X697992Y471932D01*
X695900Y469900D01*
X428244Y470408D02*
X365760Y470408D01*
X428244Y470408D02*
X454152Y496316D01*
X505968Y496316D01*
X531876Y470408D01*
X365760Y470408D02*
X365700Y469900D01*
X530800Y469900D02*
X531876Y470408D01*
D23*
X1138428Y557276D03*
X1107948Y487172D03*
X1013460Y465836D03*
D22*
X201168Y304292D02*
X201168Y279908D01*
X259080Y221996D01*
X350520Y221996D01*
X374904Y246380D01*
X374904Y295148D01*
X365760Y304292D01*
X201168Y304292D02*
X200600Y304800D01*
X365700Y304800D02*
X365760Y304292D01*
X1147572Y569468D02*
X1147572Y656336D01*
X1147572Y569468D02*
X1150620Y566420D01*
X1150620Y462788D01*
X1069848Y382016D01*
X899160Y267716D02*
X827532Y267716D01*
X816864Y257048D01*
X800100Y257048D01*
X797052Y260096D01*
X778764Y260096D01*
X734568Y304292D01*
X696468Y304292D01*
X695900Y304800D01*
X623316Y305816D02*
X531876Y305816D01*
X623316Y305816D02*
X649224Y331724D01*
X670560Y331724D01*
X696468Y305816D01*
X695900Y304800D01*
X409956Y295148D02*
X374904Y295148D01*
X409956Y295148D02*
X438912Y324104D01*
X477012Y324104D01*
X484632Y331724D01*
X505968Y331724D01*
X531876Y305816D01*
X374904Y295148D02*
X365700Y304800D01*
X530800Y304800D02*
X531876Y305816D01*
D23*
X1147572Y656336D03*
X1069848Y382016D03*
X899160Y267716D03*
M02*
