G04 EAGLE Gerber RS-274X export*
G75*
%MOMM*%
%FSLAX34Y34*%
%LPD*%
%INSolderpaste Bottom*%
%IPPOS*%
%AMOC8*
5,1,8,0,0,1.08239X$1,22.5*%
G01*
%ADD10R,1.100000X1.000000*%
%ADD11R,2.550000X2.500000*%
%ADD12C,0.040000*%


D10*
X1100700Y635000D03*
X1083700Y635000D03*
X808600Y533400D03*
X791600Y533400D03*
X1100700Y596900D03*
X1083700Y596900D03*
X834000Y482600D03*
X817000Y482600D03*
D11*
X200600Y635000D03*
X66100Y609600D03*
X530800Y304800D03*
X396300Y279400D03*
X530800Y139700D03*
X396300Y114300D03*
X695900Y635000D03*
X561400Y609600D03*
X695900Y469900D03*
X561400Y444500D03*
X695900Y304800D03*
X561400Y279400D03*
X695900Y139700D03*
X561400Y114300D03*
X200600Y469900D03*
X66100Y444500D03*
X200600Y304800D03*
X66100Y279400D03*
X365700Y635000D03*
X231200Y609600D03*
X365700Y469900D03*
X231200Y444500D03*
X200600Y139700D03*
X66100Y114300D03*
X365700Y304800D03*
X231200Y279400D03*
X365700Y139700D03*
X231200Y114300D03*
X530800Y635000D03*
X396300Y609600D03*
X530800Y469900D03*
X396300Y444500D03*
D12*
X805650Y281200D02*
X810550Y281200D01*
X810550Y277600D01*
X805650Y277600D01*
X805650Y281200D01*
X805650Y277980D02*
X810550Y277980D01*
X810550Y278360D02*
X805650Y278360D01*
X805650Y278740D02*
X810550Y278740D01*
X810550Y279120D02*
X805650Y279120D01*
X805650Y279500D02*
X810550Y279500D01*
X810550Y279880D02*
X805650Y279880D01*
X805650Y280260D02*
X810550Y280260D01*
X810550Y280640D02*
X805650Y280640D01*
X805650Y281020D02*
X810550Y281020D01*
X794550Y281200D02*
X789650Y281200D01*
X794550Y281200D02*
X794550Y277600D01*
X789650Y277600D01*
X789650Y281200D01*
X789650Y277980D02*
X794550Y277980D01*
X794550Y278360D02*
X789650Y278360D01*
X789650Y278740D02*
X794550Y278740D01*
X794550Y279120D02*
X789650Y279120D01*
X789650Y279500D02*
X794550Y279500D01*
X794550Y279880D02*
X789650Y279880D01*
X789650Y280260D02*
X794550Y280260D01*
X794550Y280640D02*
X789650Y280640D01*
X789650Y281020D02*
X794550Y281020D01*
X805650Y230400D02*
X810550Y230400D01*
X810550Y226800D01*
X805650Y226800D01*
X805650Y230400D01*
X805650Y227180D02*
X810550Y227180D01*
X810550Y227560D02*
X805650Y227560D01*
X805650Y227940D02*
X810550Y227940D01*
X810550Y228320D02*
X805650Y228320D01*
X805650Y228700D02*
X810550Y228700D01*
X810550Y229080D02*
X805650Y229080D01*
X805650Y229460D02*
X810550Y229460D01*
X810550Y229840D02*
X805650Y229840D01*
X805650Y230220D02*
X810550Y230220D01*
X794550Y230400D02*
X789650Y230400D01*
X794550Y230400D02*
X794550Y226800D01*
X789650Y226800D01*
X789650Y230400D01*
X789650Y227180D02*
X794550Y227180D01*
X794550Y227560D02*
X789650Y227560D01*
X789650Y227940D02*
X794550Y227940D01*
X794550Y228320D02*
X789650Y228320D01*
X789650Y228700D02*
X794550Y228700D01*
X794550Y229080D02*
X789650Y229080D01*
X789650Y229460D02*
X794550Y229460D01*
X794550Y229840D02*
X789650Y229840D01*
X789650Y230220D02*
X794550Y230220D01*
X805650Y179600D02*
X810550Y179600D01*
X810550Y176000D01*
X805650Y176000D01*
X805650Y179600D01*
X805650Y176380D02*
X810550Y176380D01*
X810550Y176760D02*
X805650Y176760D01*
X805650Y177140D02*
X810550Y177140D01*
X810550Y177520D02*
X805650Y177520D01*
X805650Y177900D02*
X810550Y177900D01*
X810550Y178280D02*
X805650Y178280D01*
X805650Y178660D02*
X810550Y178660D01*
X810550Y179040D02*
X805650Y179040D01*
X805650Y179420D02*
X810550Y179420D01*
X794550Y179600D02*
X789650Y179600D01*
X794550Y179600D02*
X794550Y176000D01*
X789650Y176000D01*
X789650Y179600D01*
X789650Y176380D02*
X794550Y176380D01*
X794550Y176760D02*
X789650Y176760D01*
X789650Y177140D02*
X794550Y177140D01*
X794550Y177520D02*
X789650Y177520D01*
X789650Y177900D02*
X794550Y177900D01*
X794550Y178280D02*
X789650Y178280D01*
X789650Y178660D02*
X794550Y178660D01*
X794550Y179040D02*
X789650Y179040D01*
X789650Y179420D02*
X794550Y179420D01*
X805650Y128800D02*
X810550Y128800D01*
X810550Y125200D01*
X805650Y125200D01*
X805650Y128800D01*
X805650Y125580D02*
X810550Y125580D01*
X810550Y125960D02*
X805650Y125960D01*
X805650Y126340D02*
X810550Y126340D01*
X810550Y126720D02*
X805650Y126720D01*
X805650Y127100D02*
X810550Y127100D01*
X810550Y127480D02*
X805650Y127480D01*
X805650Y127860D02*
X810550Y127860D01*
X810550Y128240D02*
X805650Y128240D01*
X805650Y128620D02*
X810550Y128620D01*
X794550Y128800D02*
X789650Y128800D01*
X794550Y128800D02*
X794550Y125200D01*
X789650Y125200D01*
X789650Y128800D01*
X789650Y125580D02*
X794550Y125580D01*
X794550Y125960D02*
X789650Y125960D01*
X789650Y126340D02*
X794550Y126340D01*
X794550Y126720D02*
X789650Y126720D01*
X789650Y127100D02*
X794550Y127100D01*
X794550Y127480D02*
X789650Y127480D01*
X789650Y127860D02*
X794550Y127860D01*
X794550Y128240D02*
X789650Y128240D01*
X789650Y128620D02*
X794550Y128620D01*
X881850Y281200D02*
X886750Y281200D01*
X886750Y277600D01*
X881850Y277600D01*
X881850Y281200D01*
X881850Y277980D02*
X886750Y277980D01*
X886750Y278360D02*
X881850Y278360D01*
X881850Y278740D02*
X886750Y278740D01*
X886750Y279120D02*
X881850Y279120D01*
X881850Y279500D02*
X886750Y279500D01*
X886750Y279880D02*
X881850Y279880D01*
X881850Y280260D02*
X886750Y280260D01*
X886750Y280640D02*
X881850Y280640D01*
X881850Y281020D02*
X886750Y281020D01*
X870750Y281200D02*
X865850Y281200D01*
X870750Y281200D02*
X870750Y277600D01*
X865850Y277600D01*
X865850Y281200D01*
X865850Y277980D02*
X870750Y277980D01*
X870750Y278360D02*
X865850Y278360D01*
X865850Y278740D02*
X870750Y278740D01*
X870750Y279120D02*
X865850Y279120D01*
X865850Y279500D02*
X870750Y279500D01*
X870750Y279880D02*
X865850Y279880D01*
X865850Y280260D02*
X870750Y280260D01*
X870750Y280640D02*
X865850Y280640D01*
X865850Y281020D02*
X870750Y281020D01*
X881850Y230400D02*
X886750Y230400D01*
X886750Y226800D01*
X881850Y226800D01*
X881850Y230400D01*
X881850Y227180D02*
X886750Y227180D01*
X886750Y227560D02*
X881850Y227560D01*
X881850Y227940D02*
X886750Y227940D01*
X886750Y228320D02*
X881850Y228320D01*
X881850Y228700D02*
X886750Y228700D01*
X886750Y229080D02*
X881850Y229080D01*
X881850Y229460D02*
X886750Y229460D01*
X886750Y229840D02*
X881850Y229840D01*
X881850Y230220D02*
X886750Y230220D01*
X870750Y230400D02*
X865850Y230400D01*
X870750Y230400D02*
X870750Y226800D01*
X865850Y226800D01*
X865850Y230400D01*
X865850Y227180D02*
X870750Y227180D01*
X870750Y227560D02*
X865850Y227560D01*
X865850Y227940D02*
X870750Y227940D01*
X870750Y228320D02*
X865850Y228320D01*
X865850Y228700D02*
X870750Y228700D01*
X870750Y229080D02*
X865850Y229080D01*
X865850Y229460D02*
X870750Y229460D01*
X870750Y229840D02*
X865850Y229840D01*
X865850Y230220D02*
X870750Y230220D01*
X881850Y179600D02*
X886750Y179600D01*
X886750Y176000D01*
X881850Y176000D01*
X881850Y179600D01*
X881850Y176380D02*
X886750Y176380D01*
X886750Y176760D02*
X881850Y176760D01*
X881850Y177140D02*
X886750Y177140D01*
X886750Y177520D02*
X881850Y177520D01*
X881850Y177900D02*
X886750Y177900D01*
X886750Y178280D02*
X881850Y178280D01*
X881850Y178660D02*
X886750Y178660D01*
X886750Y179040D02*
X881850Y179040D01*
X881850Y179420D02*
X886750Y179420D01*
X870750Y179600D02*
X865850Y179600D01*
X870750Y179600D02*
X870750Y176000D01*
X865850Y176000D01*
X865850Y179600D01*
X865850Y176380D02*
X870750Y176380D01*
X870750Y176760D02*
X865850Y176760D01*
X865850Y177140D02*
X870750Y177140D01*
X870750Y177520D02*
X865850Y177520D01*
X865850Y177900D02*
X870750Y177900D01*
X870750Y178280D02*
X865850Y178280D01*
X865850Y178660D02*
X870750Y178660D01*
X870750Y179040D02*
X865850Y179040D01*
X865850Y179420D02*
X870750Y179420D01*
X881850Y128800D02*
X886750Y128800D01*
X886750Y125200D01*
X881850Y125200D01*
X881850Y128800D01*
X881850Y125580D02*
X886750Y125580D01*
X886750Y125960D02*
X881850Y125960D01*
X881850Y126340D02*
X886750Y126340D01*
X886750Y126720D02*
X881850Y126720D01*
X881850Y127100D02*
X886750Y127100D01*
X886750Y127480D02*
X881850Y127480D01*
X881850Y127860D02*
X886750Y127860D01*
X886750Y128240D02*
X881850Y128240D01*
X881850Y128620D02*
X886750Y128620D01*
X870750Y128800D02*
X865850Y128800D01*
X870750Y128800D02*
X870750Y125200D01*
X865850Y125200D01*
X865850Y128800D01*
X865850Y125580D02*
X870750Y125580D01*
X870750Y125960D02*
X865850Y125960D01*
X865850Y126340D02*
X870750Y126340D01*
X870750Y126720D02*
X865850Y126720D01*
X865850Y127100D02*
X870750Y127100D01*
X870750Y127480D02*
X865850Y127480D01*
X865850Y127860D02*
X870750Y127860D01*
X870750Y128240D02*
X865850Y128240D01*
X865850Y128620D02*
X870750Y128620D01*
X1008850Y281200D02*
X1013750Y281200D01*
X1013750Y277600D01*
X1008850Y277600D01*
X1008850Y281200D01*
X1008850Y277980D02*
X1013750Y277980D01*
X1013750Y278360D02*
X1008850Y278360D01*
X1008850Y278740D02*
X1013750Y278740D01*
X1013750Y279120D02*
X1008850Y279120D01*
X1008850Y279500D02*
X1013750Y279500D01*
X1013750Y279880D02*
X1008850Y279880D01*
X1008850Y280260D02*
X1013750Y280260D01*
X1013750Y280640D02*
X1008850Y280640D01*
X1008850Y281020D02*
X1013750Y281020D01*
X997750Y281200D02*
X992850Y281200D01*
X997750Y281200D02*
X997750Y277600D01*
X992850Y277600D01*
X992850Y281200D01*
X992850Y277980D02*
X997750Y277980D01*
X997750Y278360D02*
X992850Y278360D01*
X992850Y278740D02*
X997750Y278740D01*
X997750Y279120D02*
X992850Y279120D01*
X992850Y279500D02*
X997750Y279500D01*
X997750Y279880D02*
X992850Y279880D01*
X992850Y280260D02*
X997750Y280260D01*
X997750Y280640D02*
X992850Y280640D01*
X992850Y281020D02*
X997750Y281020D01*
X1008850Y230400D02*
X1013750Y230400D01*
X1013750Y226800D01*
X1008850Y226800D01*
X1008850Y230400D01*
X1008850Y227180D02*
X1013750Y227180D01*
X1013750Y227560D02*
X1008850Y227560D01*
X1008850Y227940D02*
X1013750Y227940D01*
X1013750Y228320D02*
X1008850Y228320D01*
X1008850Y228700D02*
X1013750Y228700D01*
X1013750Y229080D02*
X1008850Y229080D01*
X1008850Y229460D02*
X1013750Y229460D01*
X1013750Y229840D02*
X1008850Y229840D01*
X1008850Y230220D02*
X1013750Y230220D01*
X997750Y230400D02*
X992850Y230400D01*
X997750Y230400D02*
X997750Y226800D01*
X992850Y226800D01*
X992850Y230400D01*
X992850Y227180D02*
X997750Y227180D01*
X997750Y227560D02*
X992850Y227560D01*
X992850Y227940D02*
X997750Y227940D01*
X997750Y228320D02*
X992850Y228320D01*
X992850Y228700D02*
X997750Y228700D01*
X997750Y229080D02*
X992850Y229080D01*
X992850Y229460D02*
X997750Y229460D01*
X997750Y229840D02*
X992850Y229840D01*
X992850Y230220D02*
X997750Y230220D01*
X1008850Y179600D02*
X1013750Y179600D01*
X1013750Y176000D01*
X1008850Y176000D01*
X1008850Y179600D01*
X1008850Y176380D02*
X1013750Y176380D01*
X1013750Y176760D02*
X1008850Y176760D01*
X1008850Y177140D02*
X1013750Y177140D01*
X1013750Y177520D02*
X1008850Y177520D01*
X1008850Y177900D02*
X1013750Y177900D01*
X1013750Y178280D02*
X1008850Y178280D01*
X1008850Y178660D02*
X1013750Y178660D01*
X1013750Y179040D02*
X1008850Y179040D01*
X1008850Y179420D02*
X1013750Y179420D01*
X997750Y179600D02*
X992850Y179600D01*
X997750Y179600D02*
X997750Y176000D01*
X992850Y176000D01*
X992850Y179600D01*
X992850Y176380D02*
X997750Y176380D01*
X997750Y176760D02*
X992850Y176760D01*
X992850Y177140D02*
X997750Y177140D01*
X997750Y177520D02*
X992850Y177520D01*
X992850Y177900D02*
X997750Y177900D01*
X997750Y178280D02*
X992850Y178280D01*
X992850Y178660D02*
X997750Y178660D01*
X997750Y179040D02*
X992850Y179040D01*
X992850Y179420D02*
X997750Y179420D01*
X1008850Y128800D02*
X1013750Y128800D01*
X1013750Y125200D01*
X1008850Y125200D01*
X1008850Y128800D01*
X1008850Y125580D02*
X1013750Y125580D01*
X1013750Y125960D02*
X1008850Y125960D01*
X1008850Y126340D02*
X1013750Y126340D01*
X1013750Y126720D02*
X1008850Y126720D01*
X1008850Y127100D02*
X1013750Y127100D01*
X1013750Y127480D02*
X1008850Y127480D01*
X1008850Y127860D02*
X1013750Y127860D01*
X1013750Y128240D02*
X1008850Y128240D01*
X1008850Y128620D02*
X1013750Y128620D01*
X997750Y128800D02*
X992850Y128800D01*
X997750Y128800D02*
X997750Y125200D01*
X992850Y125200D01*
X992850Y128800D01*
X992850Y125580D02*
X997750Y125580D01*
X997750Y125960D02*
X992850Y125960D01*
X992850Y126340D02*
X997750Y126340D01*
X997750Y126720D02*
X992850Y126720D01*
X992850Y127100D02*
X997750Y127100D01*
X997750Y127480D02*
X992850Y127480D01*
X992850Y127860D02*
X997750Y127860D01*
X997750Y128240D02*
X992850Y128240D01*
X992850Y128620D02*
X997750Y128620D01*
X1085050Y281200D02*
X1089950Y281200D01*
X1089950Y277600D01*
X1085050Y277600D01*
X1085050Y281200D01*
X1085050Y277980D02*
X1089950Y277980D01*
X1089950Y278360D02*
X1085050Y278360D01*
X1085050Y278740D02*
X1089950Y278740D01*
X1089950Y279120D02*
X1085050Y279120D01*
X1085050Y279500D02*
X1089950Y279500D01*
X1089950Y279880D02*
X1085050Y279880D01*
X1085050Y280260D02*
X1089950Y280260D01*
X1089950Y280640D02*
X1085050Y280640D01*
X1085050Y281020D02*
X1089950Y281020D01*
X1073950Y281200D02*
X1069050Y281200D01*
X1073950Y281200D02*
X1073950Y277600D01*
X1069050Y277600D01*
X1069050Y281200D01*
X1069050Y277980D02*
X1073950Y277980D01*
X1073950Y278360D02*
X1069050Y278360D01*
X1069050Y278740D02*
X1073950Y278740D01*
X1073950Y279120D02*
X1069050Y279120D01*
X1069050Y279500D02*
X1073950Y279500D01*
X1073950Y279880D02*
X1069050Y279880D01*
X1069050Y280260D02*
X1073950Y280260D01*
X1073950Y280640D02*
X1069050Y280640D01*
X1069050Y281020D02*
X1073950Y281020D01*
X1085050Y230400D02*
X1089950Y230400D01*
X1089950Y226800D01*
X1085050Y226800D01*
X1085050Y230400D01*
X1085050Y227180D02*
X1089950Y227180D01*
X1089950Y227560D02*
X1085050Y227560D01*
X1085050Y227940D02*
X1089950Y227940D01*
X1089950Y228320D02*
X1085050Y228320D01*
X1085050Y228700D02*
X1089950Y228700D01*
X1089950Y229080D02*
X1085050Y229080D01*
X1085050Y229460D02*
X1089950Y229460D01*
X1089950Y229840D02*
X1085050Y229840D01*
X1085050Y230220D02*
X1089950Y230220D01*
X1073950Y230400D02*
X1069050Y230400D01*
X1073950Y230400D02*
X1073950Y226800D01*
X1069050Y226800D01*
X1069050Y230400D01*
X1069050Y227180D02*
X1073950Y227180D01*
X1073950Y227560D02*
X1069050Y227560D01*
X1069050Y227940D02*
X1073950Y227940D01*
X1073950Y228320D02*
X1069050Y228320D01*
X1069050Y228700D02*
X1073950Y228700D01*
X1073950Y229080D02*
X1069050Y229080D01*
X1069050Y229460D02*
X1073950Y229460D01*
X1073950Y229840D02*
X1069050Y229840D01*
X1069050Y230220D02*
X1073950Y230220D01*
X1085050Y179600D02*
X1089950Y179600D01*
X1089950Y176000D01*
X1085050Y176000D01*
X1085050Y179600D01*
X1085050Y176380D02*
X1089950Y176380D01*
X1089950Y176760D02*
X1085050Y176760D01*
X1085050Y177140D02*
X1089950Y177140D01*
X1089950Y177520D02*
X1085050Y177520D01*
X1085050Y177900D02*
X1089950Y177900D01*
X1089950Y178280D02*
X1085050Y178280D01*
X1085050Y178660D02*
X1089950Y178660D01*
X1089950Y179040D02*
X1085050Y179040D01*
X1085050Y179420D02*
X1089950Y179420D01*
X1073950Y179600D02*
X1069050Y179600D01*
X1073950Y179600D02*
X1073950Y176000D01*
X1069050Y176000D01*
X1069050Y179600D01*
X1069050Y176380D02*
X1073950Y176380D01*
X1073950Y176760D02*
X1069050Y176760D01*
X1069050Y177140D02*
X1073950Y177140D01*
X1073950Y177520D02*
X1069050Y177520D01*
X1069050Y177900D02*
X1073950Y177900D01*
X1073950Y178280D02*
X1069050Y178280D01*
X1069050Y178660D02*
X1073950Y178660D01*
X1073950Y179040D02*
X1069050Y179040D01*
X1069050Y179420D02*
X1073950Y179420D01*
X1085050Y128800D02*
X1089950Y128800D01*
X1089950Y125200D01*
X1085050Y125200D01*
X1085050Y128800D01*
X1085050Y125580D02*
X1089950Y125580D01*
X1089950Y125960D02*
X1085050Y125960D01*
X1085050Y126340D02*
X1089950Y126340D01*
X1089950Y126720D02*
X1085050Y126720D01*
X1085050Y127100D02*
X1089950Y127100D01*
X1089950Y127480D02*
X1085050Y127480D01*
X1085050Y127860D02*
X1089950Y127860D01*
X1089950Y128240D02*
X1085050Y128240D01*
X1085050Y128620D02*
X1089950Y128620D01*
X1073950Y128800D02*
X1069050Y128800D01*
X1073950Y128800D02*
X1073950Y125200D01*
X1069050Y125200D01*
X1069050Y128800D01*
X1069050Y125580D02*
X1073950Y125580D01*
X1073950Y125960D02*
X1069050Y125960D01*
X1069050Y126340D02*
X1073950Y126340D01*
X1073950Y126720D02*
X1069050Y126720D01*
X1069050Y127100D02*
X1073950Y127100D01*
X1073950Y127480D02*
X1069050Y127480D01*
X1069050Y127860D02*
X1073950Y127860D01*
X1073950Y128240D02*
X1069050Y128240D01*
X1069050Y128620D02*
X1073950Y128620D01*
M02*
