M48
;GenerationSoftware,Autodesk,EAGLE,9.6.2*%
;CreationDate,2022-11-27T09:49:41Z*%
FMAT,2
ICI,OFF
METRIC,TZ,000.000
T12C0.350
T11C0.400
T10C0.600
T9C1.000
T8C1.016
T7C1.100
T6C1.500
T5C1.700
T4C2.200
T3C2.800
T2C3.000
T1C3.988
%
G90
M71
T1
X63500Y25400
X63500Y41910
X63500Y8890
X30480Y8890
X46990Y25400
X46990Y41910
X30480Y25400
X13970Y8890
X30480Y41910
X13970Y41910
X13970Y58420
X46990Y58420
X63500Y58420
X13970Y25400
X30480Y58420
X46990Y8890
T2
X10160Y27940
X16510Y30480
X26670Y60960
X33020Y63500
X26670Y44450
X33020Y46990
X10160Y11430
X33020Y30480
X26670Y11430
X33020Y13970
X43180Y60960
X49530Y63500
X43180Y44450
X49530Y46990
X16510Y13970
X59690Y60960
X10160Y60960
X16510Y63500
X43180Y27940
X49530Y30480
X43180Y11430
X49530Y13970
X66040Y63500
X59690Y44450
X66040Y46990
X59690Y27940
X66040Y30480
X59690Y11430
X66040Y13970
X10160Y44450
X16510Y46990
X26670Y27940
T3
X2540Y64770
X2540Y2540
X118110Y64770
X118110Y2540
T4
X75280Y36820
X112680Y36820
X112680Y3820
X75280Y3820
T5
X51990Y8890
X41990Y8890
X68500Y25400
X35480Y58420
X58500Y8890
X58500Y58420
X68500Y58420
X58500Y41910
X68500Y41910
X25480Y58420
X68500Y8890
X51990Y58420
X18970Y58420
X8970Y58420
X41990Y58420
X18970Y41910
X8970Y41910
X18970Y25400
X8970Y25400
X35480Y41910
X18970Y8890
X8970Y8890
X35480Y25400
X25480Y25400
X51990Y41910
X51990Y25400
X41990Y25400
X41990Y41910
X35480Y8890
X25480Y8890
X58500Y25400
X25480Y41910
T6
X43180Y44450
X49500Y46990
X26670Y44450
X32990Y46990
X43180Y60960
X49500Y63500
X26670Y60960
X59690Y11430
X66010Y13970
X59690Y44450
X66010Y46990
X59690Y27940
X59690Y60960
X66010Y63500
X43180Y11430
X49500Y13970
X26670Y11430
X32990Y13970
X43180Y27940
X49500Y30480
X26670Y27940
X32990Y30480
X10160Y11430
X16480Y13970
X10160Y27940
X16480Y30480
X10160Y44450
X10160Y60960
X32990Y63500
X66010Y30480
X16480Y46990
X16480Y63500
T7
X76153Y48768
X86153Y48768
T8
X94691Y61239
X88189Y65761
X88189Y61239
X94691Y65761
T9
X43180Y36830
X50800Y36830
X34290Y53340
X86360Y37320
X88900Y37320
X91440Y37320
X93980Y37320
X96520Y37320
X99060Y37320
X101600Y37320
X10160Y53340
X17780Y53340
X10160Y36830
X17780Y36830
X10160Y20320
X17780Y20320
X10160Y3810
X17780Y3810
X26670Y20320
X34290Y20320
X43180Y20320
X50800Y20320
X26670Y3810
X34290Y3810
X43180Y3810
X50800Y3810
X59690Y53340
X67310Y53340
X59690Y20320
X67310Y20320
X59690Y36830
X67310Y36830
X59690Y3810
X67310Y3810
X26670Y53340
X43180Y53340
X50800Y53340
X26670Y36830
X34290Y36830
T10
X73145Y62660
X81795Y66040
X73145Y66040
X81795Y62660
T11
X74495Y63030
X80445Y61680
X79595Y61680
X78745Y61680
X77895Y61680
X77045Y61680
X76195Y61680
X75345Y61680
X74495Y61680
X75345Y63030
X76195Y63030
X77045Y63030
X77895Y63030
X78745Y63030
X79595Y63030
X80445Y63030
T12
X81890Y31090
X82702Y30277
X106274Y65227
X100990Y60960
X71323Y6502
X72136Y5690
X91034Y58115
X83566Y63602
X73762Y31090
X102210Y15240
X108915Y48158
X112370Y31699
X76403Y10770
X86970Y26822
X114402Y56083
X107899Y65227
X64008Y33325
X71323Y29464
X100990Y15646
X100990Y14427
X50597Y34544
X55677Y26213
X91034Y18898
X99974Y23774
X35560Y49581
X59334Y18694
X95504Y31090
X88392Y14427
X68682Y17069
X69494Y17882
X94488Y50394
X94082Y49174
X74371Y17069
X75184Y17882
X104648Y41046
X115621Y61976
X69291Y32309
X71933Y28651
X95098Y51816
X98958Y47346
X69088Y48768
X74168Y29870
X105867Y35357
X110541Y40030
X108712Y65227
X111557Y32309
X105461Y57302
X113792Y44501
X114402Y55270
X79654Y14834
X99162Y61976
X99568Y45923
X80467Y15646
X100990Y63398
X100990Y52629
X100178Y51816
X103632Y44501
X84734Y54254
X93675Y44501
X88595Y59741
X88392Y16256
X92456Y57709
X115011Y63398
X108102Y35966
X108915Y36779
X99568Y58115
X107290Y56693
X116027Y60147
X108915Y57099
X107899Y53848
X98552Y61366
X110338Y61976
M30