G04 EAGLE Gerber RS-274X export*
G75*
%MOMM*%
%FSLAX34Y34*%
%LPD*%
%INSolderpaste Top*%
%IPPOS*%
%AMOC8*
5,1,8,0,0,1.08239X$1,22.5*%
G01*
%ADD10R,1.100000X1.000000*%
%ADD11R,3.500000X1.600000*%
%ADD12R,0.550000X1.200000*%
%ADD13R,1.300000X1.500000*%
%ADD14C,0.300000*%
%ADD15C,0.137500*%
%ADD16R,0.700000X0.750000*%


D10*
X893200Y571500D03*
X910200Y571500D03*
X842400Y584200D03*
X859400Y584200D03*
X944000Y571500D03*
X961000Y571500D03*
D11*
X1131900Y495300D03*
X1077900Y495300D03*
X976300Y495300D03*
X1030300Y495300D03*
D12*
X917600Y431499D03*
X927100Y431499D03*
X936600Y431499D03*
X936600Y457501D03*
X917600Y457501D03*
D13*
X1019200Y431800D03*
X1038200Y431800D03*
X968400Y431800D03*
X987400Y431800D03*
X1120800Y431800D03*
X1139800Y431800D03*
D14*
X916550Y525800D02*
X907550Y525800D01*
X907550Y541000D01*
X916550Y541000D01*
X916550Y525800D01*
X916550Y528650D02*
X907550Y528650D01*
X907550Y531500D02*
X916550Y531500D01*
X916550Y534350D02*
X907550Y534350D01*
X907550Y537200D02*
X916550Y537200D01*
X916550Y540050D02*
X907550Y540050D01*
X937650Y525800D02*
X946650Y525800D01*
X937650Y525800D02*
X937650Y541000D01*
X946650Y541000D01*
X946650Y525800D01*
X946650Y528650D02*
X937650Y528650D01*
X937650Y531500D02*
X946650Y531500D01*
X946650Y534350D02*
X937650Y534350D01*
X937650Y537200D02*
X946650Y537200D01*
X946650Y540050D02*
X937650Y540050D01*
D13*
X1070000Y431800D03*
X1089000Y431800D03*
D15*
X1041563Y545487D02*
X1041563Y560113D01*
X1041563Y545487D02*
X1037437Y545487D01*
X1037437Y560113D01*
X1041563Y560113D01*
X1041563Y546793D02*
X1037437Y546793D01*
X1037437Y548099D02*
X1041563Y548099D01*
X1041563Y549405D02*
X1037437Y549405D01*
X1037437Y550711D02*
X1041563Y550711D01*
X1041563Y552017D02*
X1037437Y552017D01*
X1037437Y553323D02*
X1041563Y553323D01*
X1041563Y554629D02*
X1037437Y554629D01*
X1037437Y555935D02*
X1041563Y555935D01*
X1041563Y557241D02*
X1037437Y557241D01*
X1037437Y558547D02*
X1041563Y558547D01*
X1041563Y559853D02*
X1037437Y559853D01*
X1049563Y560113D02*
X1049563Y545487D01*
X1045437Y545487D01*
X1045437Y560113D01*
X1049563Y560113D01*
X1049563Y546793D02*
X1045437Y546793D01*
X1045437Y548099D02*
X1049563Y548099D01*
X1049563Y549405D02*
X1045437Y549405D01*
X1045437Y550711D02*
X1049563Y550711D01*
X1049563Y552017D02*
X1045437Y552017D01*
X1045437Y553323D02*
X1049563Y553323D01*
X1049563Y554629D02*
X1045437Y554629D01*
X1045437Y555935D02*
X1049563Y555935D01*
X1049563Y557241D02*
X1045437Y557241D01*
X1045437Y558547D02*
X1049563Y558547D01*
X1049563Y559853D02*
X1045437Y559853D01*
X1057563Y560113D02*
X1057563Y545487D01*
X1053437Y545487D01*
X1053437Y560113D01*
X1057563Y560113D01*
X1057563Y546793D02*
X1053437Y546793D01*
X1053437Y548099D02*
X1057563Y548099D01*
X1057563Y549405D02*
X1053437Y549405D01*
X1053437Y550711D02*
X1057563Y550711D01*
X1057563Y552017D02*
X1053437Y552017D01*
X1053437Y553323D02*
X1057563Y553323D01*
X1057563Y554629D02*
X1053437Y554629D01*
X1053437Y555935D02*
X1057563Y555935D01*
X1057563Y557241D02*
X1053437Y557241D01*
X1053437Y558547D02*
X1057563Y558547D01*
X1057563Y559853D02*
X1053437Y559853D01*
X1065563Y560113D02*
X1065563Y545487D01*
X1061437Y545487D01*
X1061437Y560113D01*
X1065563Y560113D01*
X1065563Y546793D02*
X1061437Y546793D01*
X1061437Y548099D02*
X1065563Y548099D01*
X1065563Y549405D02*
X1061437Y549405D01*
X1061437Y550711D02*
X1065563Y550711D01*
X1065563Y552017D02*
X1061437Y552017D01*
X1061437Y553323D02*
X1065563Y553323D01*
X1065563Y554629D02*
X1061437Y554629D01*
X1061437Y555935D02*
X1065563Y555935D01*
X1065563Y557241D02*
X1061437Y557241D01*
X1061437Y558547D02*
X1065563Y558547D01*
X1065563Y559853D02*
X1061437Y559853D01*
X1073563Y560113D02*
X1073563Y545487D01*
X1069437Y545487D01*
X1069437Y560113D01*
X1073563Y560113D01*
X1073563Y546793D02*
X1069437Y546793D01*
X1069437Y548099D02*
X1073563Y548099D01*
X1073563Y549405D02*
X1069437Y549405D01*
X1069437Y550711D02*
X1073563Y550711D01*
X1073563Y552017D02*
X1069437Y552017D01*
X1069437Y553323D02*
X1073563Y553323D01*
X1073563Y554629D02*
X1069437Y554629D01*
X1069437Y555935D02*
X1073563Y555935D01*
X1073563Y557241D02*
X1069437Y557241D01*
X1069437Y558547D02*
X1073563Y558547D01*
X1073563Y559853D02*
X1069437Y559853D01*
X1081563Y560113D02*
X1081563Y545487D01*
X1077437Y545487D01*
X1077437Y560113D01*
X1081563Y560113D01*
X1081563Y546793D02*
X1077437Y546793D01*
X1077437Y548099D02*
X1081563Y548099D01*
X1081563Y549405D02*
X1077437Y549405D01*
X1077437Y550711D02*
X1081563Y550711D01*
X1081563Y552017D02*
X1077437Y552017D01*
X1077437Y553323D02*
X1081563Y553323D01*
X1081563Y554629D02*
X1077437Y554629D01*
X1077437Y555935D02*
X1081563Y555935D01*
X1081563Y557241D02*
X1077437Y557241D01*
X1077437Y558547D02*
X1081563Y558547D01*
X1081563Y559853D02*
X1077437Y559853D01*
X1089563Y560113D02*
X1089563Y545487D01*
X1085437Y545487D01*
X1085437Y560113D01*
X1089563Y560113D01*
X1089563Y546793D02*
X1085437Y546793D01*
X1085437Y548099D02*
X1089563Y548099D01*
X1089563Y549405D02*
X1085437Y549405D01*
X1085437Y550711D02*
X1089563Y550711D01*
X1089563Y552017D02*
X1085437Y552017D01*
X1085437Y553323D02*
X1089563Y553323D01*
X1089563Y554629D02*
X1085437Y554629D01*
X1085437Y555935D02*
X1089563Y555935D01*
X1089563Y557241D02*
X1085437Y557241D01*
X1085437Y558547D02*
X1089563Y558547D01*
X1089563Y559853D02*
X1085437Y559853D01*
X1097563Y560113D02*
X1097563Y545487D01*
X1093437Y545487D01*
X1093437Y560113D01*
X1097563Y560113D01*
X1097563Y546793D02*
X1093437Y546793D01*
X1093437Y548099D02*
X1097563Y548099D01*
X1097563Y549405D02*
X1093437Y549405D01*
X1093437Y550711D02*
X1097563Y550711D01*
X1097563Y552017D02*
X1093437Y552017D01*
X1093437Y553323D02*
X1097563Y553323D01*
X1097563Y554629D02*
X1093437Y554629D01*
X1093437Y555935D02*
X1097563Y555935D01*
X1097563Y557241D02*
X1093437Y557241D01*
X1093437Y558547D02*
X1097563Y558547D01*
X1097563Y559853D02*
X1093437Y559853D01*
X1105563Y560113D02*
X1105563Y545487D01*
X1101437Y545487D01*
X1101437Y560113D01*
X1105563Y560113D01*
X1105563Y546793D02*
X1101437Y546793D01*
X1101437Y548099D02*
X1105563Y548099D01*
X1105563Y549405D02*
X1101437Y549405D01*
X1101437Y550711D02*
X1105563Y550711D01*
X1105563Y552017D02*
X1101437Y552017D01*
X1101437Y553323D02*
X1105563Y553323D01*
X1105563Y554629D02*
X1101437Y554629D01*
X1101437Y555935D02*
X1105563Y555935D01*
X1105563Y557241D02*
X1101437Y557241D01*
X1101437Y558547D02*
X1105563Y558547D01*
X1105563Y559853D02*
X1101437Y559853D01*
X1113563Y560113D02*
X1113563Y545487D01*
X1109437Y545487D01*
X1109437Y560113D01*
X1113563Y560113D01*
X1113563Y546793D02*
X1109437Y546793D01*
X1109437Y548099D02*
X1113563Y548099D01*
X1113563Y549405D02*
X1109437Y549405D01*
X1109437Y550711D02*
X1113563Y550711D01*
X1113563Y552017D02*
X1109437Y552017D01*
X1109437Y553323D02*
X1113563Y553323D01*
X1113563Y554629D02*
X1109437Y554629D01*
X1109437Y555935D02*
X1113563Y555935D01*
X1113563Y557241D02*
X1109437Y557241D01*
X1109437Y558547D02*
X1113563Y558547D01*
X1113563Y559853D02*
X1109437Y559853D01*
X1121563Y560113D02*
X1121563Y545487D01*
X1117437Y545487D01*
X1117437Y560113D01*
X1121563Y560113D01*
X1121563Y546793D02*
X1117437Y546793D01*
X1117437Y548099D02*
X1121563Y548099D01*
X1121563Y549405D02*
X1117437Y549405D01*
X1117437Y550711D02*
X1121563Y550711D01*
X1121563Y552017D02*
X1117437Y552017D01*
X1117437Y553323D02*
X1121563Y553323D01*
X1121563Y554629D02*
X1117437Y554629D01*
X1117437Y555935D02*
X1121563Y555935D01*
X1121563Y557241D02*
X1117437Y557241D01*
X1117437Y558547D02*
X1121563Y558547D01*
X1121563Y559853D02*
X1117437Y559853D01*
X1121563Y659087D02*
X1121563Y673713D01*
X1121563Y659087D02*
X1117437Y659087D01*
X1117437Y673713D01*
X1121563Y673713D01*
X1121563Y660393D02*
X1117437Y660393D01*
X1117437Y661699D02*
X1121563Y661699D01*
X1121563Y663005D02*
X1117437Y663005D01*
X1117437Y664311D02*
X1121563Y664311D01*
X1121563Y665617D02*
X1117437Y665617D01*
X1117437Y666923D02*
X1121563Y666923D01*
X1121563Y668229D02*
X1117437Y668229D01*
X1117437Y669535D02*
X1121563Y669535D01*
X1121563Y670841D02*
X1117437Y670841D01*
X1117437Y672147D02*
X1121563Y672147D01*
X1121563Y673453D02*
X1117437Y673453D01*
X1113563Y673713D02*
X1113563Y659087D01*
X1109437Y659087D01*
X1109437Y673713D01*
X1113563Y673713D01*
X1113563Y660393D02*
X1109437Y660393D01*
X1109437Y661699D02*
X1113563Y661699D01*
X1113563Y663005D02*
X1109437Y663005D01*
X1109437Y664311D02*
X1113563Y664311D01*
X1113563Y665617D02*
X1109437Y665617D01*
X1109437Y666923D02*
X1113563Y666923D01*
X1113563Y668229D02*
X1109437Y668229D01*
X1109437Y669535D02*
X1113563Y669535D01*
X1113563Y670841D02*
X1109437Y670841D01*
X1109437Y672147D02*
X1113563Y672147D01*
X1113563Y673453D02*
X1109437Y673453D01*
X1105563Y673713D02*
X1105563Y659087D01*
X1101437Y659087D01*
X1101437Y673713D01*
X1105563Y673713D01*
X1105563Y660393D02*
X1101437Y660393D01*
X1101437Y661699D02*
X1105563Y661699D01*
X1105563Y663005D02*
X1101437Y663005D01*
X1101437Y664311D02*
X1105563Y664311D01*
X1105563Y665617D02*
X1101437Y665617D01*
X1101437Y666923D02*
X1105563Y666923D01*
X1105563Y668229D02*
X1101437Y668229D01*
X1101437Y669535D02*
X1105563Y669535D01*
X1105563Y670841D02*
X1101437Y670841D01*
X1101437Y672147D02*
X1105563Y672147D01*
X1105563Y673453D02*
X1101437Y673453D01*
X1097563Y673713D02*
X1097563Y659087D01*
X1093437Y659087D01*
X1093437Y673713D01*
X1097563Y673713D01*
X1097563Y660393D02*
X1093437Y660393D01*
X1093437Y661699D02*
X1097563Y661699D01*
X1097563Y663005D02*
X1093437Y663005D01*
X1093437Y664311D02*
X1097563Y664311D01*
X1097563Y665617D02*
X1093437Y665617D01*
X1093437Y666923D02*
X1097563Y666923D01*
X1097563Y668229D02*
X1093437Y668229D01*
X1093437Y669535D02*
X1097563Y669535D01*
X1097563Y670841D02*
X1093437Y670841D01*
X1093437Y672147D02*
X1097563Y672147D01*
X1097563Y673453D02*
X1093437Y673453D01*
X1089563Y673713D02*
X1089563Y659087D01*
X1085437Y659087D01*
X1085437Y673713D01*
X1089563Y673713D01*
X1089563Y660393D02*
X1085437Y660393D01*
X1085437Y661699D02*
X1089563Y661699D01*
X1089563Y663005D02*
X1085437Y663005D01*
X1085437Y664311D02*
X1089563Y664311D01*
X1089563Y665617D02*
X1085437Y665617D01*
X1085437Y666923D02*
X1089563Y666923D01*
X1089563Y668229D02*
X1085437Y668229D01*
X1085437Y669535D02*
X1089563Y669535D01*
X1089563Y670841D02*
X1085437Y670841D01*
X1085437Y672147D02*
X1089563Y672147D01*
X1089563Y673453D02*
X1085437Y673453D01*
X1081563Y673713D02*
X1081563Y659087D01*
X1077437Y659087D01*
X1077437Y673713D01*
X1081563Y673713D01*
X1081563Y660393D02*
X1077437Y660393D01*
X1077437Y661699D02*
X1081563Y661699D01*
X1081563Y663005D02*
X1077437Y663005D01*
X1077437Y664311D02*
X1081563Y664311D01*
X1081563Y665617D02*
X1077437Y665617D01*
X1077437Y666923D02*
X1081563Y666923D01*
X1081563Y668229D02*
X1077437Y668229D01*
X1077437Y669535D02*
X1081563Y669535D01*
X1081563Y670841D02*
X1077437Y670841D01*
X1077437Y672147D02*
X1081563Y672147D01*
X1081563Y673453D02*
X1077437Y673453D01*
X1073563Y673713D02*
X1073563Y659087D01*
X1069437Y659087D01*
X1069437Y673713D01*
X1073563Y673713D01*
X1073563Y660393D02*
X1069437Y660393D01*
X1069437Y661699D02*
X1073563Y661699D01*
X1073563Y663005D02*
X1069437Y663005D01*
X1069437Y664311D02*
X1073563Y664311D01*
X1073563Y665617D02*
X1069437Y665617D01*
X1069437Y666923D02*
X1073563Y666923D01*
X1073563Y668229D02*
X1069437Y668229D01*
X1069437Y669535D02*
X1073563Y669535D01*
X1073563Y670841D02*
X1069437Y670841D01*
X1069437Y672147D02*
X1073563Y672147D01*
X1073563Y673453D02*
X1069437Y673453D01*
X1065563Y673713D02*
X1065563Y659087D01*
X1061437Y659087D01*
X1061437Y673713D01*
X1065563Y673713D01*
X1065563Y660393D02*
X1061437Y660393D01*
X1061437Y661699D02*
X1065563Y661699D01*
X1065563Y663005D02*
X1061437Y663005D01*
X1061437Y664311D02*
X1065563Y664311D01*
X1065563Y665617D02*
X1061437Y665617D01*
X1061437Y666923D02*
X1065563Y666923D01*
X1065563Y668229D02*
X1061437Y668229D01*
X1061437Y669535D02*
X1065563Y669535D01*
X1065563Y670841D02*
X1061437Y670841D01*
X1061437Y672147D02*
X1065563Y672147D01*
X1065563Y673453D02*
X1061437Y673453D01*
X1057563Y673713D02*
X1057563Y659087D01*
X1053437Y659087D01*
X1053437Y673713D01*
X1057563Y673713D01*
X1057563Y660393D02*
X1053437Y660393D01*
X1053437Y661699D02*
X1057563Y661699D01*
X1057563Y663005D02*
X1053437Y663005D01*
X1053437Y664311D02*
X1057563Y664311D01*
X1057563Y665617D02*
X1053437Y665617D01*
X1053437Y666923D02*
X1057563Y666923D01*
X1057563Y668229D02*
X1053437Y668229D01*
X1053437Y669535D02*
X1057563Y669535D01*
X1057563Y670841D02*
X1053437Y670841D01*
X1053437Y672147D02*
X1057563Y672147D01*
X1057563Y673453D02*
X1053437Y673453D01*
X1049563Y673713D02*
X1049563Y659087D01*
X1045437Y659087D01*
X1045437Y673713D01*
X1049563Y673713D01*
X1049563Y660393D02*
X1045437Y660393D01*
X1045437Y661699D02*
X1049563Y661699D01*
X1049563Y663005D02*
X1045437Y663005D01*
X1045437Y664311D02*
X1049563Y664311D01*
X1049563Y665617D02*
X1045437Y665617D01*
X1045437Y666923D02*
X1049563Y666923D01*
X1049563Y668229D02*
X1045437Y668229D01*
X1045437Y669535D02*
X1049563Y669535D01*
X1049563Y670841D02*
X1045437Y670841D01*
X1045437Y672147D02*
X1049563Y672147D01*
X1049563Y673453D02*
X1045437Y673453D01*
X1041563Y673713D02*
X1041563Y659087D01*
X1037437Y659087D01*
X1037437Y673713D01*
X1041563Y673713D01*
X1041563Y660393D02*
X1037437Y660393D01*
X1037437Y661699D02*
X1041563Y661699D01*
X1041563Y663005D02*
X1037437Y663005D01*
X1037437Y664311D02*
X1041563Y664311D01*
X1041563Y665617D02*
X1037437Y665617D01*
X1037437Y666923D02*
X1041563Y666923D01*
X1041563Y668229D02*
X1037437Y668229D01*
X1037437Y669535D02*
X1041563Y669535D01*
X1041563Y670841D02*
X1037437Y670841D01*
X1037437Y672147D02*
X1041563Y672147D01*
X1041563Y673453D02*
X1037437Y673453D01*
X1030013Y647537D02*
X1015387Y647537D01*
X1015387Y651663D01*
X1030013Y651663D01*
X1030013Y647537D01*
X1030013Y648843D02*
X1015387Y648843D01*
X1015387Y650149D02*
X1030013Y650149D01*
X1030013Y651455D02*
X1015387Y651455D01*
X1015387Y639537D02*
X1030013Y639537D01*
X1015387Y639537D02*
X1015387Y643663D01*
X1030013Y643663D01*
X1030013Y639537D01*
X1030013Y640843D02*
X1015387Y640843D01*
X1015387Y642149D02*
X1030013Y642149D01*
X1030013Y643455D02*
X1015387Y643455D01*
X1015387Y631537D02*
X1030013Y631537D01*
X1015387Y631537D02*
X1015387Y635663D01*
X1030013Y635663D01*
X1030013Y631537D01*
X1030013Y632843D02*
X1015387Y632843D01*
X1015387Y634149D02*
X1030013Y634149D01*
X1030013Y635455D02*
X1015387Y635455D01*
X1015387Y623537D02*
X1030013Y623537D01*
X1015387Y623537D02*
X1015387Y627663D01*
X1030013Y627663D01*
X1030013Y623537D01*
X1030013Y624843D02*
X1015387Y624843D01*
X1015387Y626149D02*
X1030013Y626149D01*
X1030013Y627455D02*
X1015387Y627455D01*
X1015387Y615537D02*
X1030013Y615537D01*
X1015387Y615537D02*
X1015387Y619663D01*
X1030013Y619663D01*
X1030013Y615537D01*
X1030013Y616843D02*
X1015387Y616843D01*
X1015387Y618149D02*
X1030013Y618149D01*
X1030013Y619455D02*
X1015387Y619455D01*
X1015387Y607537D02*
X1030013Y607537D01*
X1015387Y607537D02*
X1015387Y611663D01*
X1030013Y611663D01*
X1030013Y607537D01*
X1030013Y608843D02*
X1015387Y608843D01*
X1015387Y610149D02*
X1030013Y610149D01*
X1030013Y611455D02*
X1015387Y611455D01*
X1015387Y599537D02*
X1030013Y599537D01*
X1015387Y599537D02*
X1015387Y603663D01*
X1030013Y603663D01*
X1030013Y599537D01*
X1030013Y600843D02*
X1015387Y600843D01*
X1015387Y602149D02*
X1030013Y602149D01*
X1030013Y603455D02*
X1015387Y603455D01*
X1015387Y591537D02*
X1030013Y591537D01*
X1015387Y591537D02*
X1015387Y595663D01*
X1030013Y595663D01*
X1030013Y591537D01*
X1030013Y592843D02*
X1015387Y592843D01*
X1015387Y594149D02*
X1030013Y594149D01*
X1030013Y595455D02*
X1015387Y595455D01*
X1015387Y583537D02*
X1030013Y583537D01*
X1015387Y583537D02*
X1015387Y587663D01*
X1030013Y587663D01*
X1030013Y583537D01*
X1030013Y584843D02*
X1015387Y584843D01*
X1015387Y586149D02*
X1030013Y586149D01*
X1030013Y587455D02*
X1015387Y587455D01*
X1015387Y575537D02*
X1030013Y575537D01*
X1015387Y575537D02*
X1015387Y579663D01*
X1030013Y579663D01*
X1030013Y575537D01*
X1030013Y576843D02*
X1015387Y576843D01*
X1015387Y578149D02*
X1030013Y578149D01*
X1030013Y579455D02*
X1015387Y579455D01*
X1015387Y567537D02*
X1030013Y567537D01*
X1015387Y567537D02*
X1015387Y571663D01*
X1030013Y571663D01*
X1030013Y567537D01*
X1030013Y568843D02*
X1015387Y568843D01*
X1015387Y570149D02*
X1030013Y570149D01*
X1030013Y571455D02*
X1015387Y571455D01*
X1128987Y567537D02*
X1143613Y567537D01*
X1128987Y567537D02*
X1128987Y571663D01*
X1143613Y571663D01*
X1143613Y567537D01*
X1143613Y568843D02*
X1128987Y568843D01*
X1128987Y570149D02*
X1143613Y570149D01*
X1143613Y571455D02*
X1128987Y571455D01*
X1128987Y575537D02*
X1143613Y575537D01*
X1128987Y575537D02*
X1128987Y579663D01*
X1143613Y579663D01*
X1143613Y575537D01*
X1143613Y576843D02*
X1128987Y576843D01*
X1128987Y578149D02*
X1143613Y578149D01*
X1143613Y579455D02*
X1128987Y579455D01*
X1128987Y583537D02*
X1143613Y583537D01*
X1128987Y583537D02*
X1128987Y587663D01*
X1143613Y587663D01*
X1143613Y583537D01*
X1143613Y584843D02*
X1128987Y584843D01*
X1128987Y586149D02*
X1143613Y586149D01*
X1143613Y587455D02*
X1128987Y587455D01*
X1128987Y591537D02*
X1143613Y591537D01*
X1128987Y591537D02*
X1128987Y595663D01*
X1143613Y595663D01*
X1143613Y591537D01*
X1143613Y592843D02*
X1128987Y592843D01*
X1128987Y594149D02*
X1143613Y594149D01*
X1143613Y595455D02*
X1128987Y595455D01*
X1128987Y599537D02*
X1143613Y599537D01*
X1128987Y599537D02*
X1128987Y603663D01*
X1143613Y603663D01*
X1143613Y599537D01*
X1143613Y600843D02*
X1128987Y600843D01*
X1128987Y602149D02*
X1143613Y602149D01*
X1143613Y603455D02*
X1128987Y603455D01*
X1128987Y607537D02*
X1143613Y607537D01*
X1128987Y607537D02*
X1128987Y611663D01*
X1143613Y611663D01*
X1143613Y607537D01*
X1143613Y608843D02*
X1128987Y608843D01*
X1128987Y610149D02*
X1143613Y610149D01*
X1143613Y611455D02*
X1128987Y611455D01*
X1128987Y615537D02*
X1143613Y615537D01*
X1128987Y615537D02*
X1128987Y619663D01*
X1143613Y619663D01*
X1143613Y615537D01*
X1143613Y616843D02*
X1128987Y616843D01*
X1128987Y618149D02*
X1143613Y618149D01*
X1143613Y619455D02*
X1128987Y619455D01*
X1128987Y623537D02*
X1143613Y623537D01*
X1128987Y623537D02*
X1128987Y627663D01*
X1143613Y627663D01*
X1143613Y623537D01*
X1143613Y624843D02*
X1128987Y624843D01*
X1128987Y626149D02*
X1143613Y626149D01*
X1143613Y627455D02*
X1128987Y627455D01*
X1128987Y631537D02*
X1143613Y631537D01*
X1128987Y631537D02*
X1128987Y635663D01*
X1143613Y635663D01*
X1143613Y631537D01*
X1143613Y632843D02*
X1128987Y632843D01*
X1128987Y634149D02*
X1143613Y634149D01*
X1143613Y635455D02*
X1128987Y635455D01*
X1128987Y639537D02*
X1143613Y639537D01*
X1128987Y639537D02*
X1128987Y643663D01*
X1143613Y643663D01*
X1143613Y639537D01*
X1143613Y640843D02*
X1128987Y640843D01*
X1128987Y642149D02*
X1143613Y642149D01*
X1143613Y643455D02*
X1128987Y643455D01*
X1128987Y647537D02*
X1143613Y647537D01*
X1128987Y647537D02*
X1128987Y651663D01*
X1143613Y651663D01*
X1143613Y647537D01*
X1143613Y648843D02*
X1128987Y648843D01*
X1128987Y650149D02*
X1143613Y650149D01*
X1143613Y651455D02*
X1128987Y651455D01*
D16*
X985600Y603650D03*
X985600Y590150D03*
X995600Y590150D03*
X995600Y603650D03*
M02*
